<?xml version="1.0" standalone="no"?>
<!DOCTYPE svg PUBLIC "-//W3C//DTD SVG 1.1//EN" "http://www.w3.org/Graphics/SVG/1.1/DTD/svg11.dtd" >
<svg xmlns="http://www.w3.org/2000/svg">
<metadata>Generated by IcoMoon</metadata>
<defs>
<font id="icomoon" horiz-adv-x="1024">
<font-face units-per-em="1024" ascent="896" descent="-128" />
<missing-glyph horiz-adv-x="1024" />
<glyph unicode="&#x20;" horiz-adv-x="0" d="" />
<glyph unicode="&#xe602;" glyph-name="2" d="M832.299 649.902q-5.155 3.439-15.035 9.451t-41.672 21.913-64.445 28.785-81.629 25.347-96.237 16.757-103.971-1.717-109.127-25.776q-53.274-19.763-94.947-49.836t-67.879-63.155-44.25-71.318-26.207-73.465-10.311-70.457 0-61.867 6.445-48.119q7.733-30.932 19.763-61.437t37.378-67.879 58.859-65.733 85.925-50.266 115.999-27.068q36.087 0 64.445 9.023t46.399 23.629 32.222 32.653 26.637 36.948 25.347 34.8 32.653 28.354 44.681 16.757q80.769 23.198 137.911 54.133t85.497 62.724 41.672 66.593 9.023 67.023-15.466 62.724-28.354 55.852-33.081 44.681-26.637 29.646-11.601 10.311zM273.786 205.671q-24.059 0-40.815 17.185t-16.757 40.815 16.757 40.387 40.815 16.757 40.815-16.757 16.757-40.387-16.757-40.815-40.815-17.185zM312.451 398.143q-24.059 0-40.815 16.757t-16.757 40.815 16.757 40.815 40.815 16.757 40.815-16.757 16.757-40.815-16.757-40.815-40.815-16.757zM466.259 513.28q-24.059 0-40.815 17.185t-16.757 40.815 16.757 40.387 40.815 16.757 40.815-16.757 16.757-40.387-16.757-40.815-40.815-17.185zM658.731 513.28q-24.059 0-40.815 17.185t-16.757 40.815 16.757 40.387 40.815 16.757 40.815-16.757 16.757-40.387-16.757-40.815-40.815-17.185zM773.869 398.143q-24.059 0-40.815 16.757t-16.757 40.815 16.757 40.815 40.815 16.757 40.815-16.757 16.757-40.815-16.757-40.815-40.815-16.757z" />
<glyph unicode="&#xe603;" glyph-name="qiehuanfan" d="M896.359 639.57h-128.287v128.287q0 26.059-19.043 45.101t-45.101 19.043h-576.286q-26.059 0-44.599-19.043t-18.542-45.101v-576.286q0-26.059 18.542-45.101t44.599-19.043h128.287v-127.284q0-27.060 18.542-45.602t45.602-18.542h576.286q26.059 0 44.599 18.542t18.542 45.602v575.283q0 27.060-18.542 45.602t-44.599 18.542zM127.644 191.571v576.286h576.286v-128.287h-383.856q-27.060 0-45.602-18.542t-18.542-45.602v-383.856h-128.287z" />
<glyph unicode="&#xe606;" glyph-name="dayin" d="M912.117 645.425h-136.698v149.673h-526.841v-149.673h-136.698q-17.964 0-30.431-12.474t-12.474-30.431v-366.195h179.604v-62.86l200.56-200.56h326.288v261.425h179.604v368.192q0 17.964-12.474 30.431t-30.431 12.474zM299.456 744.212h425.068v-98.782h-425.068v98.782zM825.309 304.172h-49.89v100.777h-50.887v-381.16h-208.541q-20.956 0-32.93 18.458t-13.971 44.903-0.501 52.884 4.488 44.403l3.993 18.958q-3.993-0.996-10.477-2.498t-24.448-4.488-34.424-3.993-36.915 0-35.421 5.49-24.942 15.466-10.978 26.939v164.639h-50.887v-98.782h-49.89v171.625h626.624v-173.621zM861.723 539.658q-14.472 0-24.448 9.976t-9.976 24.448 9.976 24.448 24.448 9.976 24.448-9.976 9.976-24.448-9.976-24.448-24.448-9.976zM663.662 397.971h-291.361v-50.887h291.361v50.887zM372.299 247.302h291.361v50.887h-291.361v-50.887z" />
<glyph unicode="&#xe607;" glyph-name="yingpianb" d="M928.997-24.002h-231q117.999 53.998 190.001 164.003t72.002 243.999q0 91-35.5 173.999t-95.498 143.003-143.003 95.498-174.5 35.5-173.999-35.5-142.502-95.498-95.498-143.003-35.5-173.999 35.5-173.999 95.498-143.003 142.502-95.498 174.5-35.5h416.997q10.003 0 10.003 10.003v19.999q0 10.003-10.003 10.003zM836.996 383.5q0-50.502-35.5-86.002t-86.002-35.5-86.502 35.5-36.001 86.002 36.001 86.502 86.502 36.001 86.002-36.001 35.5-86.502zM511.5 708.996q50.502 0 86.502-35.5t36.001-86.002-36.001-86.502-86.502-36.001-86.502 36.001-36.001 86.502 36.001 86.002 86.502 35.5zM185.996 383.5q0 50.502 35.5 86.502t86.502 36.001 86.502-36.001 35.5-86.502-35.5-86.002-86.502-35.5-86.502 35.5-35.5 86.002zM388.996 179.999q0 51.002 36.001 86.502t86.502 35.5 86.502-35.5 36.001-86.502-36.001-86.502-86.502-35.5-86.502 35.5-36.001 86.502z" />
<glyph unicode="&#xe60e;" glyph-name="r" d="M345.93 294.939v-358.934h-194.199v895.993h383.041q304.022-10.715 309.379-233.038-5.357-174.111-184.831-216.975v-5.357q131.252-14.733 160.716-198.217 0-14.733 4.018-29.464 9.374-164.733 48.215-212.948h-207.592q-29.464 116.519-33.482 242.414-14.733 115.18-83.037 115.18h-202.236v1.339zM345.93 681.997v-237.056h159.377q129.913 0 135.271 124.555-5.357 112.501-135.271 112.501h-159.377z" />
<glyph unicode="&#xe610;" glyph-name="saomiao" d="M923.427 352.351h-822.853q-12.857 0-22.254 9.397t-9.397 22.254 9.397 22.254 22.254 9.397h822.853q12.857 0 22.254-9.397t9.397-22.254-9.397-22.254-22.254-9.397zM828.483-27.431h-189.887q-12.857 0-22.254 9.397t-9.397 22.254 9.397 22.254 22.254 9.397h189.887q12.857 0 22.254 9.397t9.397 22.254v158.242q0 12.857 9.397 22.254t22.254 9.397 22.254-9.397 9.397-22.254v-158.242q0-39.558-27.689-67.254t-67.254-27.689zM353.758-27.431h-158.242q-39.558 0-67.254 27.689t-27.689 67.254v158.242q0 12.857 9.397 22.254t22.254 9.397 22.254-9.397 9.397-22.254v-158.242q0-12.857 9.397-22.254t22.254-9.397h158.242q12.857 0 22.254-9.397t9.397-22.254-9.397-22.254-22.254-9.397zM132.222 510.592q-12.857 0-22.254 9.397t-9.397 22.254v158.242q0 39.558 27.689 67.254t67.254 27.689h158.242q12.857 0 22.254-9.397t9.397-22.254-9.397-22.254-22.254-9.397h-158.242q-12.857 0-22.254-9.397t-9.397-22.254v-158.242q0-12.857-9.397-22.254t-22.254-9.397zM891.778 510.592q-12.857 0-22.254 9.397t-9.397 22.254v158.242q0 12.857-9.397 22.254t-22.254 9.397h-189.887q-12.857 0-22.254 9.397t-9.397 22.254 9.397 22.254 22.254 9.397h189.887q39.558 0 67.254-27.689t27.689-67.254v-158.242q0-12.857-9.397-22.254t-22.254-9.397z" />
<glyph unicode="&#xe611;" glyph-name="daoxu" d="M309.103 832c-24.983 0-41.64-16.655-41.64-41.64v-724.535l-104.1 83.279c-16.655 16.655-45.803 12.493-58.296-4.165-16.655-16.655-12.493-45.803 4.165-58.296l170.723-141.575c29.149-20.821 66.624-4.165 66.624 33.313v811.978c4.165 20.821-12.493 41.64-37.475 41.64zM471.498 698.752h458.038v-83.279h-458.038zM471.498 398.945h458.038v-83.279h-458.038zM471.498 99.138h458.038v-83.279h-458.038z" />
<glyph unicode="&#xe617;" glyph-name="fangshe" d="M507.214 832q46.822 0 79.81-33.521t32.988-80.342-32.988-79.81-79.81-32.988-80.342 32.988-33.521 79.81 33.521 80.342 80.342 33.521v0zM200.744 489.349h211.763q-103.221-245.815-4.257-341.587h-207.506v341.587zM512.532 281.843q2.128 129.825 14.898 198.993 2.128 2.128 4.787 3.723t11.174 3.723 15.962-4.257q3.192-3.192 7.982-11.706t19.687-47.355 28.732-94.175q2.128-10.641 3.723-26.072t-3.723-51.079-23.411-55.867l-1.595 1.064t-4.257 2.128-6.385 3.723-8.513 6.385-10.11 7.982-11.706 11.174-12.238 13.834-12.238 17.026-12.77 20.752v0zM495.507 281.843q-2.128 129.825-14.898 198.993-2.128 2.128-4.787 3.723t-11.174 3.723-15.962-4.257q-3.192-3.192-7.982-11.706t-19.687-47.355-28.732-94.175q-2.128-10.641-3.723-26.072t3.723-51.079 23.411-55.867l1.595 1.064t4.257 2.128 6.385 3.723 8.513 6.385 10.11 7.982 11.706 11.174 12.238 13.834 12.238 17.026 12.77 20.752v0zM585.959 152.019l-163.877-3.192 77.682 98.964zM808.362 489.349h-212.827q103.221-245.815 4.257-341.587h208.57v341.587zM71.983 587.249v-531.002h153.236v-120.247h91.515v120.247h30.86v-120.247h310.725v120.247h35.117v-120.247h91.515v120.247h167.069v531.002h-880.038zM911.583 95.621h-799.164v451.193h799.164v-451.193z" />
<glyph unicode="&#xe618;" glyph-name="jiaoduceliang" d="M891.792 138.796q-33.185 0-47.935-29.498h-344.761q12.905 47.935 2.766 93.104-10.14 47.013-43.326 87.573-25.81 33.185-61.761 58.075l252.579 283q8.296-1.843 16.593-1.843 22.124 0 37.794 15.671t15.671 37.794-15.671 37.794-38.256 15.671-38.256-15.671-15.671-37.794q0-10.14 3.687-19.359l-470.129-525.438q-6.454 0.921-12.905 0.921-22.124 0-37.794-15.671t-15.671-37.794 15.671-37.794 37.794-15.671q33.185 0 47.935 30.421h663.712q14.75-30.421 47.935-30.421 22.124 0 37.794 15.671t15.671 37.794-15.671 37.794-37.794 15.671zM443.786 278.913q62.685-78.356 35.951-169.615h-296.826l200.957 224.003q35.030-23.967 59.919-54.388zM665.484 707.56q10.602 0 17.975-7.375t7.375-17.975-7.375-17.975-17.975-7.375-17.975 7.375-7.375 17.975 7.375 17.975 17.975 7.375zM132.21 60.44q-10.14 0-17.975 7.375t-7.836 17.975 7.836 17.975 17.975 7.375 17.514-7.375 7.375-17.975-7.375-17.975-17.514-7.375zM891.792 60.44q-10.14 0-17.514 7.375t-7.375 17.975 7.375 17.975 17.514 7.375 17.975-7.375 7.836-17.975-7.836-17.975-17.975-7.375z" />
<glyph unicode="&#xe619;" glyph-name="juxingroiceliang" d="M902.402 139.998v487.036q21.259 7.73 34.789 26.091t13.529 41.553q0 29.956-20.777 51.217t-50.733 21.259q-23.192 0-42.035-14.012t-25.607-35.271h-598.165q-7.73 21.259-26.575 35.271t-42.035 14.012q-28.991 0-50.249-21.259t-21.259-51.217q0-23.192 13.529-41.553t35.755-26.091v-487.036q-22.226-6.764-35.755-25.607t-13.529-42.035q0-29.956 21.259-50.733t50.249-20.777q23.192 0 42.035 13.529t26.575 34.789h598.165q6.764-21.259 25.607-34.789t42.035-13.529q29.956 0 50.733 20.777t20.777 50.733q0 23.192-13.529 42.035t-34.789 25.607zM879.21 728.5q13.529 0 23.192-9.664t9.664-23.676-9.664-23.676-23.192-9.664-23.192 9.664-9.664 23.676 9.664 23.676 23.192 9.664zM111.934 695.163q0 14.012 9.664 23.676t23.192 9.664 23.192-9.664 9.664-23.676-9.664-23.676-23.192-9.664-23.192 9.664-9.664 23.676zM144.79 39.5q-13.529 0-23.192 9.664t-9.664 23.192 9.664 23.192 23.192 9.664 23.192-9.664 9.664-23.192-9.664-23.192-23.192-9.664zM811.566 94.581h-598.165q-11.596 33.821-45.418 45.418v487.036q33.821 11.596 45.418 45.418h598.165q11.596-33.821 45.418-45.418v-487.036q-33.821-11.596-45.418-45.418zM879.21 39.5q-13.529 0-23.192 9.664t-9.664 23.192 9.664 23.192 23.192 9.664 23.192-9.664 9.664-23.192-9.664-23.192-23.192-9.664z" />
<glyph unicode="&#xe61b;" glyph-name="chuangkuanchuangwei" d="M231.757 160q-23.273 0-39.273-16.485t-16-39.757 16-39.757 39.273-16.485 39.757 16.485 16.485 39.757-16.485 39.757-39.757 16.485zM120.243 440.243q-23.273 0-39.757-16.485t-16.485-39.757 16.485-39.757 39.757-16.485 39.757 16.485 16.485 39.757-16.485 39.757-39.757 16.485zM792.243 608q23.273 0 39.273 16.485t16 39.273-16 39.273-39.273 16.485-39.757-16.485-16.485-39.273 16.485-39.273 39.757-16.485zM512 719.516q23.273 0 39.757 16.485t16.485 39.757-16.485 39.757-39.757 16.485-39.757-16.485-16.485-39.757 16.485-39.757 39.757-16.485zM231.757 608q23.273 0 39.757 16.485t16.485 39.273-16.485 39.273-39.757 16.485-39.273-16.485-16-39.273 16-39.273 39.273-16.485zM512 47.516q-23.273 0-39.757-16.485t-16.485-39.273 16.485-39.273 39.757-16.485 39.757 16.485 16.485 39.273-16.485 39.273-39.757 16.485zM792.243 160q-23.273 0-39.757-16.485t-16.485-39.757 16.485-39.757 39.757-16.485 39.273 16.485 16 39.757-16 39.757-39.273 16.485zM903.757 440.243q-23.273 0-39.757-16.485t-16.485-39.757 16.485-39.757 39.757-16.485 39.757 16.485 16.485 39.757-16.485 39.757-39.757 16.485zM512 663.273q-115.395 0-197.334-81.939t-81.939-197.818 81.939-197.334 197.334-81.455 197.334 81.455 81.939 197.334-81.939 197.818-197.334 81.939zM526.545 595.393q14.545-0.97 28.121-3.879l-28.121-26.182v30.061zM526.545 550.789l40.727 37.819q9.696-2.909 19.395-6.788l-60.122-50.424v19.395zM721.455 351.030l-194.909-149.333v24.242l196.848 152.243q0-13.575-1.939-27.152zM723.393 391.758l-196.848-151.273v25.212l194.909 150.303q1.939-12.607 1.939-24.242zM719.515 427.636l-192.969-148.364v24.242l187.151 144.486q2.909-10.666 5.817-20.363zM526.545 378.183l158.061 128q6.788-8.728 11.637-18.424l-169.697-130.908v21.333zM678.789 514.908l-152.243-122.182v19.395l141.575 114.425q5.817-5.817 10.666-11.637zM526.545 425.698v18.424l121.212 101.818 13.575-11.637zM526.545 458.667v24.242l96.971 80.485q7.758-4.849 15.516-10.666zM526.545 497.454v19.395l70.788 60.122q8.728-2.909 16.485-7.758zM526.545 172.607v15.516l191.030 146.424q-3.879-18.424-11.637-35.878l-160.969-124.121q-8.728-0.97-18.424-1.939zM709.818 458.667l-183.273-141.575v26.182l175.515 134.787zM300.607 383.516q0 83.879 56.727 144.97t140.121 66.91v-422.788q-83.393 5.817-140.121 66.423t-56.727 144.486zM570.182 180.363l124.121 95.030q-43.636-71.757-124.121-95.030z" />
<glyph unicode="&#xe61c;" glyph-name="xiangyouxuanzhuan" d="M81.048 43.7h286.997v535.85zM942.952 43.7l-543.115 284.273v-284.273h543.115zM742.234 380.651l144.408 227.056-125.334-28.154q-53.585 58.126-107.17 93.093t-95.818 44.502-81.741 6.357-66.755-16.349-49.044-28.609-31.334-25.884-10.445-12.261q46.319 22.706 89.461 29.516t74.020 0 57.218-19.527 43.595-29.972 29.972-32.695 18.165-26.338l4.541-10.898-124.427-28.154z" />
<glyph unicode="&#xe61d;" glyph-name="xiangzuoxuanzhuan" d="M655.968 579.376v-535.908h287.030zM624.178 43.468v284.305l-543.175-284.305h543.175zM512.453 522.153l-125.348 28.158q2.725 4.541 6.358 11.354t17.258 25.433 29.974 33.608 43.599 29.52 57.678 19.983 73.573-1.363 89.469-28.611q-3.634 4.541-10.9 12.263t-30.883 25.433-49.503 29.52-66.307 15.895-81.749-5.904-95.374-44.962-107.635-93.103l-125.348 28.158 144.423-227.080z" />
<glyph unicode="&#xe61e;" glyph-name="yuanxingroiceliang" d="M960 384q0 22.949-13.968 41.407t-35.919 24.446q-9.977 63.858-40.909 121.728-29.933 56.874-75.831 101.773t-103.768 72.837q-53.879 26.94-111.751 35.919-5.986 21.951-24.446 35.919t-41.407 13.968-41.407-13.968-24.446-35.919q-60.865-9.977-115.742-36.918-58.868-29.933-105.763-77.328t-75.831-107.261q-25.942-52.883-34.923-110.753-21.951-5.986-35.919-24.446t-13.968-41.407 13.968-41.407 35.919-24.446q8.981-57.87 34.923-110.753 29.933-60.865 77.826-108.758t107.76-77.826q53.879-25.942 111.751-34.923 5.986-21.951 24.446-35.919t41.407-13.968 41.407 13.968 24.446 35.919q126.718 20.953 219.010 112.749t113.247 219.511q21.951 5.986 35.919 24.446t13.968 41.407zM512 802.067q14.967 0 25.942-10.975t10.975-26.44-10.975-26.44-25.942-10.975-25.942 10.975-10.975 26.44 10.975 26.44 25.942 10.975zM93.933 384q0 14.967 10.975 25.942t26.44 10.975 26.44-10.975 10.975-25.942-10.975-25.942-26.44-10.975-26.44 10.975-10.975 25.942zM512-34.067q-14.967 0-25.942 10.975t-10.975 26.44 10.975 26.44 25.942 10.975 25.942-10.975 10.975-26.44-10.975-26.44-25.942-10.975zM573.861 31.786q-8.981 17.96-25.444 28.437t-36.419 10.477-36.419-10.477-25.444-28.437q-109.754 18.958-190.575 99.777t-99.777 190.575q17.96 8.981 28.437 25.444t10.477 36.419-10.477 36.419-28.437 25.444q18.958 110.753 98.779 191.074t191.572 99.279q8.981-16.961 25.444-27.937t36.419-10.975 36.419 10.477 25.444 28.437q110.753-18.958 191.074-99.279t99.279-191.074q-17.96-8.981-28.437-25.444t-10.477-36.419 10.477-36.419 28.437-25.444q-18.958-110.753-99.279-191.074t-191.074-99.279zM892.651 347.082q-15.465 0-26.44 10.975t-10.975 25.942 10.975 25.942 26.44 10.975 26.44-10.975 10.975-25.942-10.975-25.942-26.44-10.975z" />
<glyph unicode="&#xe61f;" glyph-name="changduceliang" d="M950.429 777.066q-14.353 27.602-45.268 27.602-11.041 0-22.082-5.52-18.77-8.833-25.394-28.706-4.416-15.457-1.104-29.811l-720.988-680.134q-8.833 3.312-17.666 3.312-12.145 0-22.082-5.52-18.77-8.833-25.394-28.706t2.208-38.643q14.353-27.602 45.268-27.602v0q12.145 0 22.082 5.52 15.457 6.625 22.634 21.53t4.968 31.467l726.508 683.447q5.52-1.104 11.041-1.104v0q12.145 0 23.186 4.416 18.77 9.937 25.394 29.811t-3.312 38.643zM127.862-5.753q-4.416-2.208-9.937-2.208v0q-13.249 0-18.77 12.145-3.312 7.729-0.552 16.009t10.489 11.593q4.416 2.208 8.833 2.208 13.249 0 18.77-11.041 4.416-7.729 1.656-16.009t-10.489-12.697zM925.587 747.805q-2.76-8.281-10.489-12.697-4.416-2.208-9.937-2.208v0q-12.145 0-18.77 12.145-3.312 7.729-0.552 16.009t10.489 11.593q4.416 2.208 8.833 2.208 13.249 0 18.77-11.041 4.416-7.729 1.656-16.009z" />
<glyph unicode="&#xe622;" glyph-name="chexiao" d="M680.489 14.58h-435.35q-14.651 0-24.070 9.942t-9.418 24.070 9.418 23.546 24.070 9.418h435.35q82.675 0 141.803 59.128t59.128 142.325-59.128 141.803-141.803 58.605h-492.908l146.512-145.465q9.418-9.418 9.418-23.024t-9.418-22.5-23.024-8.895-23.024 9.418l-203.025 203.025q-9.418 9.418-9.418 22.5t9.418 22.5l203.025 203.025q9.418 9.418 23.024 9.418t23.024-9.418 9.418-22.5-9.418-22.5l-148.605-148.605h495.002q110.931 0 189.419-78.488t78.488-189.419-78.488-189.419-189.419-78.488z" />
<glyph unicode="&#xe623;" glyph-name="shuaxin" d="M725.032 542.094l-1.001-1.001zM926.064 606.103v5.001t-1.001 7.001v2l-52.008 191.030q-3.001 12.002-14.502 17.503t-25.004 2-20.503-14.502-4-22.003l23.004-85.014q-132.021 122.018-286.044 122.018-91.014 0-174.027-35.506t-143.022-95.014-95.515-141.521-35.506-172.026 35.506-173.526 95.515-144.023 143.022-97.014 174.027-36.505q191.030 0 363.055 203.032 8.001 10.002 7.001 22.003t-11.501 21.004-23.503 8.001-22.003-11.001v0 0-1.001l-2-2q-51.009-74.011-137.022-125.519t-174.027-51.508q-73.012 0-144.023 33.506t-123.519 87.514-85.014 125.019-32.505 142.522 32.505 141.521 85.513 122.52 123.519 84.512 143.521 32.005q69.011 0 136.021-32.505t119.019-84.512l-100.015 9.001q-12.002 1.001-21.503-8.001t-10.502-22.504 6.502-24.003 19.503-11.501l199.031-18.003q12.002-1.001 21.503 8.001t10.502 22.003z" />
<glyph unicode="&#xe628;" glyph-name="zhongzhi" horiz-adv-x="1271" d="M842.511 87.471c-60.279-43.685-135.716-69.878-217.272-69.878-1.785 0-3.569 0.012-5.349 0.037l0.27-0.003c-10.448 0.137-20.769 0.949-31.079 1.762-4.211 0.399-8.273 1.074-12.496 1.749-8.148 1.074-16.158 2.024-24.031 3.749-4.886 0.812-9.772 2.288-14.397 3.374-7.735 1.749-15.471 3.511-22.943 5.799-3.536 1.35-6.923 2.499-10.597 4.037-8.823 2.836-17.494 5.936-25.793 9.435-1.899 0.812-3.749 1.625-5.561 2.288-9.772 4.585-19.557 9.298-28.917 14.296-0.399 0.274-0.812 0.399-1.25 0.675-33.061 18.655-61.496 40.589-86.402 65.994l-0.062 0.063c-0.399 0.413-0.812 0.949-1.25 1.35-7.873 8.085-15.471 16.445-22.669 25.48-1.5 1.887-2.849 3.636-4.487 5.799-51.793 65.589-83.077 149.458-83.077 240.635 0 0.145 0 0.287 0 0.432v-0.021h92.186l-111.457 220.577-146.347-223.376h91.313c0-0.080 0-0.175 0-0.273 0-98.373 30.284-189.674 82.036-265.086l-1.034 1.594c0.533-1.23 1.113-2.281 1.782-3.269l-0.045 0.070c5.224-7.761 11.248-14.783 16.77-21.918 2.236-2.586 4.098-5.285 6.335-8.248 8.197-10.098 17.269-19.819 26.243-29.305 1.001-0.987 1.737-1.725 2.499-2.586 29.701-30.241 63.487-56.321 100.501-77.384l2.257-1.183c0.987-0.624 1.862-0.987 2.975-1.725 10.81-5.911 21.994-11.459 33.166-16.383 2.863-1.25 5.598-2.586 8.323-3.749 9.697-4.186 19.633-7.636 29.579-11.248 4.724-1.725 9.322-3.199 14.159-4.798 8.747-2.586 17.646-4.798 26.718-6.898 5.96-1.475 11.796-2.948 17.883-4.186 2.020-0.663 4.487-1.262 7.015-1.683l0.308-0.042c8.573-1.6 17.020-2.337 25.468-3.45 3.112-0.624 6.249-1.113 9.197-1.475 15.283-1.475 30.442-2.499 45.725-2.499 92.799 0 205.067 29.691 274.511 95.235 20.756 19.706 16.721 46.699 7.722 56.623-12.285 13.746-41.238 19.033-68.394-0.525zM1100.026 366.392c0.001 0.301 0.001 0.654 0.001 1.010 0 97.796-30.047 188.573-81.413 263.603l1.034-1.6c-0.749 1.25-1.25 2.586-1.862 3.749-6.586 9.234-13.296 17.732-20.132 26.467-0.758 0.935-1.495 1.98-2.163 3.071l-0.074 0.129c-45.395 55.626-102.541 99.897-167.81 129.358l-2.893 1.169c-1.987 0.737-3.599 1.725-5.598 2.499-10.56 4.436-21.37 8.26-32.304 12.072-3.749 1.25-7.71 2.711-11.559 3.949-9.572 2.948-19.007 5.285-28.742 7.636-5.349 1.25-10.81 2.586-16.146 3.749-2.611 0.499-5.099 1.25-7.835 1.85-7.198 1.25-14.284 1.85-21.619 2.836-5.099 0.624-9.997 1.35-14.908 1.85-12.172 1.25-24.218 1.725-36.239 1.85-2.236 0-4.348 0.362-6.586 0.362-0.374 0-0.749-0.125-1.125-0.125-97.951-0.078-188.529-31.593-262.202-85l1.3 0.898c-25.793-18.358-22.331-44.262-10.797-57.335 8.197-9.285 33.215-22.393 53.498-6.923 64.12 48.561 141.985 70.506 220.313 69.83 11.248-0.137 22.493-0.675 33.391-1.749 3.399-0.274 6.648-0.812 9.997-1.35 10.502-1.146 19.656-2.664 28.639-4.636l-1.759 0.324c3.749-0.675 7.749-1.749 11.409-2.499 8.823-2.024 17.245-4.049 25.655-6.736 3.117-0.886 5.733-1.847 8.254-2.977l-0.383 0.153c9.772-3.237 19.283-6.611 28.505-10.647 1.087-0.274 1.899-1.074 2.849-1.35 57.251-25.547 105.221-62.704 142.657-108.767l0.553-0.703c0.188-0.314 0.369-0.579 0.565-0.833l-0.014 0.020c53.711-66.353 86.226-151.781 86.226-244.806 0-0.193 0-0.387 0-0.581v0.031h-92.287l116.942-223.125 146.097 223.263zM1100.026 366.392" />
<glyph unicode="&#xe629;" glyph-name="fabu" d="M700.501 607.938h234.217q10.019 0 16.282 6.263t6.263 15.030-6.263 15.030-16.282 6.263h-234.217q-8.767 0-15.030-6.263t-6.263-15.030 6.263-15.030 15.030-6.263v0zM595.291 411.295q-10.019 0-16.908-6.263t-6.889-15.030 6.889-15.030 16.908-6.263h339.427q8.767 0 15.656 6.263t6.889 15.030-6.889 15.030-15.656 6.263h-339.427zM934.718 152.028h-463.424q-11.272 0-18.787-6.263t-7.515-15.030 7.515-15.030 18.787-6.263h463.424q10.019 0 17.534 6.263t7.515 15.030-7.515 15.030-17.534 6.263v0zM560.22 780.783l-106.462 43.838q-22.545 10.019-46.342 1.878t-33.817-29.434l-306.861-630.006q-2.504-3.757-2.504-7.515l2.504-205.41q0-10.019 8.767-15.030 3.757-1.252 7.515-1.252 6.263 0 10.019 2.504l181.612 116.482q5.011 2.504 6.263 7.515l308.114 640.026q10.019 21.293 1.878 43.838t-30.686 32.564v0zM552.705 706.885l-300.599-626.248q-1.252-3.757-6.263-5.011l-130.259-83.917q-1.252-2.504-5.011-2.504t-6.263 1.252q-6.263 3.757-6.263 11.272l-1.252 146.542q0 2.504 1.252 6.263l299.346 618.733q8.767 15.030 25.675 20.667t31.938-0.626l77.654-31.312q16.282-7.515 21.919-23.797t-1.878-31.312v0z" />
<glyph unicode="&#xe62a;" glyph-name="kongjianbujumianban" d="M900.267 772.267v-776.533h-776.533v776.533h776.533zM960 832h-896v-896h896v896zM183.467 712.532h298.667v-298.667h-298.667v298.667zM183.467 354.132h298.667v-298.667h-298.667v298.667zM541.867 712.532h298.667v-298.667h-298.667v298.667zM541.867 354.132h298.667v-298.667h-298.667v298.667z" />
<glyph unicode="&#xe62f;" glyph-name="one-line-arrow" d="M960 832l-149.333-39.823 38.827-38.827-785.493-785.493 31.857-31.857 785.493 785.493 38.827-38.827z" />
<glyph unicode="&#xe630;" glyph-name="move" d="M954.027 397.937l-159.288 122.453q-5.973 5.973-14.436 5.973t-14.436-5.973-5.973-14.436 5.973-14.436l81.636-69.688h-298.667v298.667l70.684-82.632q5.973-5.973 14.436-5.973t14.436 5.973 5.973 14.436-5.973 14.436l-121.457 159.288q-6.968 5.973-14.933 5.973t-13.937-5.973l-122.453-159.288q-5.973-5.973-5.973-14.436t5.973-14.436 14.436-5.973 14.436 5.973l70.684 82.632v-298.667h-298.667l81.636 69.688q5.973 5.973 5.973 14.436t-5.973 14.436-14.436 5.973-14.436-5.973l-159.288-122.453q-5.973-5.973-5.973-13.937t5.973-13.937l159.288-122.453q5.973-5.973 14.436-5.973t14.436 5.973 5.973 14.436-5.973 14.436l-81.636 70.684h298.667v-298.667l-70.684 81.636q-5.973 5.973-14.436 5.973t-14.436-5.973-5.973-14.436 5.973-14.436l122.453-159.288q5.973-5.973 13.937-5.973t13.937 5.973l122.453 159.288q5.973 5.973 5.973 14.436t-5.973 14.436-14.436 5.973-14.436-5.973l-70.684-81.636v298.667h298.667l-81.636-70.684q-5.973-5.973-5.973-14.436t5.973-14.436 14.436-5.973 14.436 5.973l159.288 122.453q5.973 5.973 5.973 13.937t-5.973 13.937z" />
<glyph unicode="&#xe631;" glyph-name="release" d="M275.75 746.25l408.625-405.125-165.375 25.375-60.375 10.5 24.5-57.75 133-315-42.875-18.375-133 315.875-25.375 56.875-35.875-49.875-99.75-136.5zM239.875 832v-770.876l164.5 222.25 147-347.375 107.625 46.375-147 348.25 272.125-39.375z" />
<glyph unicode="&#xe637;" glyph-name="dian" d="M904 286l-276.999 245 31.999 28-147 124v-596.001l147 99.001 119-250 80.999 73.001-121 236zM389.999 832l-122.999-149h245zM389.999 286l122.001 149h-245zM120 559l147-124v248.001z" />
<glyph unicode="&#xe639;" glyph-name="shuipingfanzhuan" d="M661.625 832h-537.25l261.625-290.5zM521.625 771.625l-133.875-140.875-127.75 140.875h261.625zM124.375-64h537.25l-261.625 290.5zM654.625 414.625h59.5v-59.5h-59.5v59.5zM232.875 414.625h105v-59.5h-105v59.5zM443.75 414.625h105v-59.5h-105v59.5zM67.5 414.625h59.5v-59.5h-59.5v59.5zM956.5 420.75q0 54.25-12.25 101.062t-30.188 78.312-42.875 57.312-45.5 39.812-43.312 24.5-30.625 13.125-13.125 3.5l-13.125-58.625q3.5 0 10.5-2.188t24.5-10.5 33.688-20.125 35.875-32.812 33.688-46.375 23.625-63.875 9.625-83.125q0-120.75-61.25-200.375l-119.875 74.375 0.875-300.125 238.875 151.375-69.125 42.875q70 94.5 70 231.875z" />
<glyph unicode="&#xe63a;" glyph-name="chuizhifanzhuan" d="M64.504-3.189l290.174 261.33-290.174 275.315v-536.646zM124.811 393.614l140.716-134.598-140.716-126.732v261.33zM669.322 272.126l290.174-275.315v536.646zM481.41 585.898h59.434v-59.434h-59.434v59.434zM481.41 210.070h59.434v-105.756h-59.434v105.756zM481.41 420.708h59.434v-104.882h-59.434v104.882zM481.41-0.566h59.434v-59.434h-59.434v59.434zM900.937 588.52l-151.204 238.606-42.826-69.048q-93.52 69.922-231.614 69.922-54.189 0-100.948-12.236t-78.224-30.154-57.248-42.826-39.768-45.448-24.472-43.264-13.11-30.59-3.496-13.11l58.559-13.11q0 3.496 2.185 10.488t10.926 24.472 20.102 33.65 32.338 35.834 46.322 33.65 63.804 23.598 83.032 9.614q120.614 0 200.15-61.182l-74.292-119.74z" />
<glyph unicode="&#xe63f;" glyph-name="youxuanzhuan90" d="M356.866 273.066h-0.866q-29.466 0-39 32.934-1.734 4.334-6.066 4.334h-0.866l-34.666-6.934q-2.6-0.866-3.466-3.034t-0.866-4.766q7.8-30.334 29.466-45.934 20.8-15.6 53.734-15.6h1.734q50.266 0 74.534 35.534 24.266 34.666 24.266 103.134 0.866 37.266-6.934 63.266-7.8 26.866-23.4 43.334-23.4 23.4-64.134 23.4v0h-3.466q-42.466-1.734-65.434-25.134t-25.566-66.734v-0.866q2.6-40.734 22.966-62.4t59.366-23.4v0h0.866q35.534 0.866 58.066 22.534-2.6-33.8-13-52.866-12.134-20.8-37.266-20.8zM356.866 364.066q-39.866 2.6-42.466 48.534 2.6 46.8 44.2 49.4 23.4-0.866 34.666-13.866 12.134-13.866 12.134-40.734-3.466-40.734-48.534-43.334zM570.066 502.734h-0.866q-46.8-1.734-70.2-36.4-23.4-33.8-25.134-97.934v-0.866q0.866-65 24.266-97.934 24.266-34.666 71.066-35.534h1.734q46.8 0 70.2 34.666 22.534 33.8 22.534 98.8v0q0 66.734-23.4 99.666-23.4 34.666-70.2 35.534zM613.4 366.666q0-48.534-11.266-71.934-10.4-21.666-31.2-21.666h-2.6q-20.8 0-31.2 21.666-11.266 23.4-11.266 71.934 0 49.4 11.266 72.8 10.4 22.534 31.2 22.534h3.466q13.866 0 22.534-8.666 19.934-20.8 19.066-86.666v0zM686.2 556.034q0 18.634-13.434 32.066t-32.066 13.434-32.066-13.434-13.434-32.066 13.434-32.066 32.066-13.434 32.066 13.434 13.434 32.066zM640.7 536.534q-8.234 0-13.866 5.634t-5.634 13.866 5.634 13.866 13.866 5.634 13.866-5.634 5.634-13.866-5.634-13.866-13.866-5.634zM851.734 244.466l104 173.334h-57.2q-8.666 104.866-65.866 192.834t-149.066 138.666-199.334 50.7q-84.934 0-161.634-32.934t-132.6-88.834-88.834-133.034-32.934-161.2 32.934-161.2 88.834-133.034 132.6-88.834 161.634-32.934 161.634 32.5 135.634 92.3l-62.4 60.666q-46.8-47.666-107.466-73.234t-127.4-25.566q-89.266 0-165.1 44.2t-120.034 120.034-44.2 165.1 44.2 165.1 120.034 120.034 165.1 44.2q127.4 0 221-85.366t106.6-210.166h-64.134z" />
<glyph unicode="&#xe644;" glyph-name="huifu" d="M497.37 629.41v-276.559l107.603-108.547 41.53 41.53v-29.261l33.981 34.924-91.557 92.5v245.411h-91.557zM558.721 783.264q-65.128 0-120.818-17.462t-92.029-43.89-65.128-59.936-44.835-65.128-26.429-60.408-13.686-43.419-3.303-17.462h-121.761l183.114-184.058 183.114 184.058h-152.91q0.943 4.72 3.303 12.271t12.271 30.204 22.652 42.947 35.396 44.835 49.553 42.475 66.545 30.204 84.95 12.271q61.353 0 111.378-23.126t79.286-58.049 49.553-78.343 27.372-80.231 7.080-67.016q-0.943-43.419-21.238-92.972t-54.273-93.917h40.587v-0.943l71.736 0.943v-0.943h9.439q45.307 92.5 45.307 187.834 0 47.194-12.271 99.109t-41.059 106.187-69.376 96.749-104.3 69.848-139.224 27.372zM784.311 85.731h-137.807v-88.726l-80.231 80.231q-3.775-0.943-7.551-0.943-29.261 0.943-58.522 11.326t-50.97 23.126-38.699 26.429-25.958 22.181-8.966 9.439l-91.557-92.5q4.72-3.775 12.743-9.911t35.867-21.709 57.576-27.844 75.983-22.181 92.5-9.911q141.583 0 242.579 100.995h-16.989zM631.401 250.912l-109.492-109.492 109.492-109.492v67.959l152.91 0.943v81.174h-152.91v68.904zM798.469 99.89l57.576 0.943v81.174h-57.576v-82.117zM870.205 99.89l41.53 0.943v81.174h-41.53v-82.117zM925.894 182.007v-82.117l27.372 0.943v81.174h-27.372z" />
<glyph unicode="&#xe64c;" glyph-name="tishishuoming" d="M512-64c-247.408 0-448 200.592-448 448s200.592 448 448 448 448-200.592 448-448-200.592-448-448-448zM512 10.667c206.192 0 373.333 167.141 373.333 373.333s-167.141 373.333-373.333 373.333-373.333-167.141-373.333-373.333 167.141-373.333 373.333-373.333zM474.667 421.333c0 20.618 16.715 37.333 37.333 37.333s37.333-16.715 37.333-37.333v0-261.333c0-20.618-16.715-37.333-37.333-37.333s-37.333 16.715-37.333 37.333v0 261.333zM508.267 540.8c-28.866 0-52.267 23.401-52.267 52.267s23.401 52.267 52.267 52.267v0c28.866 0 52.267-23.401 52.267-52.267s-23.401-52.267-52.267-52.267v0z" />
<glyph unicode="&#xe653;" glyph-name="shanchu2" d="M483.066 578.566q0 13.968 8.981 22.949t22.949 8.981v0q12.971 0 22.449-8.981t9.479-22.949v-483.919q0-12.971-9.479-22.449t-22.449-9.479v0q-13.968 0-22.949 9.479t-8.981 22.449v483.919zM332.401 578.566q0 13.968 9.479 22.949t22.449 8.981v0q12.971 0 22.449-8.981t9.479-22.949v-483.919q0-12.971-9.479-22.449t-22.449-9.479v0q-12.971 0-22.449 9.479t-9.479 22.449v483.919zM632.731 578.566q0 13.968 9.479 22.949t22.449 8.981v0q13.968 0 22.949-8.981t8.981-22.949v-483.919q0-12.971-8.981-22.449t-22.949-9.479v0q-12.971 0-22.449 9.479t-9.479 22.449v483.919zM898.14 736.215h-171.618v39.91q0 22.949-18.459 39.412t-45.398 16.463h-295.34q-26.94 0-45.398-16.463t-18.459-39.412v-39.91h-177.604q-12.971 0-22.449-9.479t-9.479-22.949 9.479-22.449 22.449-8.981h67.849v-673.496q0-25.942 18.459-44.401t45.398-18.459h514.851q25.942 0 44.9 18.459t18.958 44.401v673.496h61.861q12.971 0 22.449 8.981t9.479 22.449-9.479 22.949-22.449 9.479zM367.324 768.143h295.34v-31.928h-295.34v31.928zM738.496-0.141q-413.077-0.998-448-0.998-15.965 0-23.947 8.981t-8.981 17.96v615.626q0 9.977 2.993 16.961t7.483 9.479 9.479 3.991 7.982 0.498h453.488t8.981-1.496 11.474-4.489 8.981-9.479 3.991-15.465v-609.639q0-13.968-8.481-21.951t-16.463-8.981z" />
<glyph unicode="&#xe661;" glyph-name="guanbi3" d="M575.644 384l370.63 371.877q13.727 12.48 13.727 31.199t-13.103 31.822-31.822 13.103-31.199-13.727l-371.877-370.63-371.877 370.63q-12.48 13.727-31.199 13.727t-31.822-13.103-13.103-31.822 13.727-31.199l370.63-371.877-370.63-371.877q-13.727-12.48-13.727-31.199t13.103-31.822 31.822-13.103 31.199 13.727l371.877 370.63 371.877-370.63q12.48-13.727 31.199-13.727t31.822 13.103 13.103 31.822-13.727 31.199z" />
<glyph unicode="&#xe66d;" glyph-name="icon3" d="M69.84 789.191h254.352v-237.594h-254.352v237.594zM384.331 789.191h254.352v-237.594h-254.352v237.594zM698.822 789.191h255.34v-237.594h-255.34v237.594zM69.84 506.247h254.352v-236.608h-254.352v236.608zM384.331 506.247h254.352v-236.608h-254.352v236.608zM698.822 506.247h255.34v-236.608h-255.34v236.608zM69.84 216.403h254.352v-237.594h-254.352v237.594zM384.331 216.403h254.352v-237.594h-254.352v237.594zM698.822 216.403h255.34v-237.594h-255.34v237.594z" />
<glyph unicode="&#xe670;" glyph-name="chakan" d="M952.817 2.849l-284.972 284.972q65.009 87.274 65.009 196.809 0 89.944-44.973 166.977t-121.559 121.559-166.977 44.528-167.422-44.528-121.559-121.559-44.528-167.422 44.528-166.977 121.559-121.559 166.977-44.973q129.128 0 224.416 87.274l282.301-282.301q5.344-5.344 12.912-5.344t12.912 5.344l21.373 20.483q5.344 6.234 5.344 13.804t-5.344 12.912zM399.348 221.032q-109.092 0-186.568 77.031t-77.476 186.123 77.476 186.568 186.568 77.476 186.123-77.476 77.031-186.568-77.031-186.123-186.123-77.031zM178.049 481.959q0-13.357 9.351-22.708t22.708-9.351 23.155 9.351 9.796 22.708v0q0 68.571 48.535 117.551t117.105 48.98v0q13.357 0 22.708 9.351t9.351 22.708-9.351 22.708-22.708 9.351v0.89q-95.287 0-162.968-67.681t-67.681-163.86z" />
<glyph unicode="&#xe671;" glyph-name="chakan1" d="M922.538-21.097l-32.926-32.926q-9.977-9.977-23.947-9.977t-22.949 9.977l-134.7 133.702q-49.889-28.935-109.754-28.935-87.803 0-154.654 64.855t-68.846 154.654h-169.621v55.875h174.611q6.984 27.937 22.949 55.875h-197.56v56.874h241.461q0-0.998-0.498-1.496l-0.498-0.498q62.86 57.87 146.672 57.87 89.8 0 157.149-67.349t67.349-158.147q0-61.861-31.928-113.746l133.702-133.702q23.947-23.947 3.991-42.903zM591.777 426.903q-62.361 0-106.761-44.401t-44.401-106.761 47.893-110.254 110.254-47.893 106.761 44.401 44.401 107.261-47.893 110.254-110.254 47.395zM205.14 663.377h394.121v-55.875h-394.121v55.875zM599.259 537.657q-52.883-14.967-92.793-42.903h-301.328v55.875h394.121v-12.971zM655.134 547.635v171.618h-505.87v-561.746h237.47q17.96-62.86 59.867-112.749h-297.337q-23.947 0-40.411 16.463t-16.463 40.411v674.495q0 22.949 16.463 39.412t40.411 16.463h505.87q22.949 0 39.412-16.463t16.463-39.412v-228.489q-1.995 0.998-11.974 1.995t-15.965 0.998-15.965-0.998-11.974-1.995z" />
<glyph unicode="&#xe67f;" glyph-name="jiazaizhong" horiz-adv-x="1008" d="M504.447 825.534q-89.91 0-171.804-35.164t-140.649-93.915-93.471-140.649-34.718-171.804 34.718-171.804 93.471-141.094 140.649-93.915 171.363-34.718 171.363 34.718 140.649 93.915 93.471 141.094 34.718 171.804-34.718 171.804-93.471 140.649-140.649 93.915-170.915 35.164v0zM504.447-13.913q-81.009 0-154.447 31.604t-126.407 84.568-84.568 126.851-31.604 154.892 31.604 154.447 84.568 126.851 126.407 84.566 154.003 31.157 154.003-31.157 126.407-84.566 84.566-126.851 31.604-154.447-31.604-154.892-84.566-126.851-126.407-84.566-153.556-31.604v0zM507.114 574.5q-73.885 0-125.96-52.965t-52.077-127.742 52.077-128.189 125.516-53.413 125.516 53.413 52.077 128.189-52.077 127.742-125.071 52.965v0zM519.577 531.769q2.67 8.901 9.79 13.351t15.577 2.227 12.908-9.79 2.227-16.025-9.79-12.908-16.025-2.227-12.463 9.79-2.227 15.577v0zM380.709 338.598q-8.010-1.779-15.577 2.67t-9.79 12.908 2.227 16.025 12.908 9.79 15.579-2.227 9.348-12.908-1.779-16.025-12.908-10.237v0zM395.843 476.578q-6.23 6.23-6.23 14.688t5.788 14.688 14.688 6.23 14.688-6.23 5.788-14.688-5.788-14.688-14.688-6.23-14.245 6.23v0zM490.202 257.593q-1.779-8.901-9.348-13.351t-16.025-2.227-12.463 10.237-1.779 16.468 9.348 12.463 15.577 1.779 12.908-9.79 1.779-15.577v0zM443.913 332.369q-24.926 25.817-24.926 62.314t25.369 62.314 60.979 25.817 60.979-25.817 25.369-62.314-25.369-62.314-60.979-25.817-61.421 25.817v0zM614.83 283.407q-6.23-6.23-14.688-6.23t-14.688 6.23-6.23 15.132 6.23 14.688 14.688 5.788 14.688-5.788 6.23-14.688-6.23-15.132v0zM654.887 435.631q1.779-8.901-2.227-16.468t-12.463-9.79-16.025 2.227-9.79 12.908 2.227 16.025 12.908 9.79 15.577-1.779 9.79-12.908v0zM235.61 650.168l19.586-126.407 32.046 4.45-18.695 126.407zM402.965 56.411l20.474-25.817 97.032 79.226-20.474 26.706zM741.234 550.464l-12.463-31.157 115.723-45.402 12.463 31.157zM151.93 285.188l116.613-45.402 11.571 31.157-116.613 46.291zM607.708 732.955l-21.366 26.706-93.471-77.448 20.474-25.817zM722.54 259.372l18.695-124.628 32.936 5.34-18.695 124.628z" />
<glyph unicode="&#xe68b;" glyph-name="jurassic_data-cross" d="M543.999 415.999v416.001h-64.001v-416.001h-416.001v-64.001h416.001v-416.001h64.001v416.001h416.001v64.001zM123.701 654.9h119.499v-64.001h-119.499zM302.901 654.9h119.499v-64.001h-119.499zM601.6 654.9h119.499v-64.001h-119.499zM780.8 654.9h119.499v-64.001h-119.499zM123.701 177.101h119.499v-64.001h-119.499zM302.901 177.101h119.499v-64.001h-119.499zM601.6 177.101h119.499v-64.001h-119.499zM780.8 177.101h119.499v-64.001h-119.499z" />
<glyph unicode="&#xe68c;" glyph-name="uniE68C" d="M0 32.602l496.901 351.399-496.901 351.399v-702.799zM527.099 735.4v-702.799l496.901 351.399z" />
<glyph unicode="&#xe68d;" glyph-name="uniE68D" d="M496.901 32.601v702.799l-496.901-351.399zM527.099 384l496.901-351.399v702.799z" />
<glyph unicode="&#xe6ad;" glyph-name="qiepian" d="M103.005 795.611l220.806-213.318c1.906-1.844 3.404-3.899 4.44-6.136 1.044-2.257 1.676-4.679 1.856-7.273l39.395-575.938c0.279-4.18-0.743-8.257-2.82-11.802v-0.072c-2.067-3.493-5.158-6.334-9.052-8.159v-0.072c-3.837-1.786-7.994-2.291-12.042-1.624h-0.149c-3.988 0.682-7.756 2.53-10.829 5.499l-220.769 213.281c-1.956 1.881-3.444 3.945-4.475 6.173-1.073 2.328-1.679 4.741-1.856 7.273l-39.395 575.938c-0.279 4.18 0.738 8.25 2.82 11.802v0.072c2.065 3.489 5.146 6.33 9.052 8.159v0.072c3.827 1.782 7.982 2.292 12.042 1.624h0.149c3.975-0.68 7.75-2.524 10.829-5.499zM292.931 559.821l-184.169 177.864 35.924-525.179 184.169-177.864-35.924 525.179zM214.684 732.521l-2.911 42.53c-0.279 4.18 0.738 8.25 2.82 11.802v0.072c2.065 3.489 5.146 6.33 9.052 8.159v0.072c3.827 1.782 7.982 2.292 12.042 1.624h0.149c3.975-0.68 7.75-2.524 10.829-5.499l220.769-213.281c1.956-1.881 3.444-3.945 4.475-6.173 1.073-2.328 1.679-4.741 1.856-7.273l39.395-575.938c0.279-4.18-0.738-8.25-2.82-11.802v-0.072c-2.065-3.489-5.146-6.33-9.052-8.159v-0.072c-3.827-1.782-7.982-2.292-12.042-1.624h-0.149c-3.975 0.68-7.75 2.524-10.829 5.499l-59.911 59.489-6.171 56.697 60.325-58.259-35.924 525.179-184.169 177.864 2.971-43.429-40.706 42.594zM358.831 732.521l-2.911 42.53c-0.279 4.18 0.738 8.25 2.82 11.802v0.072c2.065 3.489 5.146 6.33 9.052 8.159v0.072c3.827 1.782 7.982 2.292 12.042 1.624h0.149c3.975-0.68 7.75-2.524 10.829-5.499l220.769-213.281c1.956-1.881 3.444-3.945 4.475-6.173 1.073-2.328 1.679-4.741 1.856-7.273l39.395-575.938c0.279-4.18-0.738-8.25-2.82-11.802v-0.072c-2.065-3.489-5.146-6.33-9.052-8.159v-0.072c-3.827-1.782-7.982-2.292-12.042-1.624h-0.149c-3.975 0.68-7.75 2.524-10.829 5.499l-59.911 59.489-6.171 56.697 60.325-58.259-35.924 525.179-184.169 177.864 2.971-43.429-40.706 42.594zM502.977 732.521l-2.911 42.53c-0.279 4.18 0.738 8.25 2.82 11.802v0.072c2.065 3.489 5.146 6.33 9.052 8.159v0.072c3.827 1.782 7.982 2.292 12.042 1.624h0.149c3.975-0.68 7.75-2.524 10.829-5.499l220.769-213.281c1.956-1.881 3.444-3.945 4.475-6.173 1.073-2.328 1.679-4.741 1.856-7.273l39.395-575.938c0.279-4.18-0.738-8.25-2.82-11.802v-0.072c-2.065-3.489-5.146-6.33-9.052-8.159v-0.072c-3.827-1.782-7.982-2.292-12.042-1.624h-0.149c-3.975 0.68-7.75 2.524-10.829 5.499l-59.911 59.489-6.171 56.697 60.325-58.259-35.924 525.179-184.169 177.864 2.971-43.429-40.706 42.594zM519.178 797.021l157.007 0.88c2.671 0 5.267-0.521 7.754-1.53l0.072-0.072c2.437-0.999 4.62-2.425 6.547-4.294l216.168-211.182c3.685-3.437 6.131-8.196 6.541-13.571l42.604-577.686c0.221-2.828-0.176-5.623-1.118-8.323-0.948-2.72-2.408-5.164-4.363-7.259l-0.035 0.033c-2.002-2.154-4.304-3.791-6.828-4.888-2.68-1.176-5.433-1.767-8.24-1.767h-161.786v37.773h143.404l-40.088 543.482h-146.188v37.773h116.491l-177.83 173.737h-156.085l5.973 36.894z" />
<glyph unicode="&#xe6ae;" glyph-name="daocutter3" d="M762.626 763.083l-418.609-427.59 78.153-79.050 428.489 419.506q17.965 17.965 17.965 43.568t-17.965 44.017-44.017 18.415-44.017-18.864zM392.526 237.577l-68.271 68.271-253.321-253.321 220.084 62.882 33.236 53.898zM70.934 24.68h77.254v-38.627h-77.254v38.627zM293.713 24.68h145.525v-38.627h-145.525v38.627zM584.762 24.68h145.525v-38.627h-145.525v38.627zM875.812 24.68h77.254v-38.627h-77.254v38.627z" />
<glyph unicode="&#xe6b6;" glyph-name="sijiaoxinxikaiguan" d="M515.344 432.242q-25.793 0-43.944-13.853t-18.151-33.435 18.151-32.958 43.467-13.374 43.944 13.374 18.628 32.958-18.151 33.435-43.944 13.853zM822.952 414.091q-4.777 5.732-12.897 14.807t-37.735 32.958-63.049 42.033-86.932 32.958-110.337 14.807-110.337-14.807-86.932-32.958-63.049-42.033-38.212-32.958-12.419-14.807v0q-10.509-8.598-26.27-15.763t-26.27-10.986l-11.463-2.867q42.033-11.463 64.005-29.614 3.821-5.732 12.419-15.284t38.212-32.958 63.049-41.556 86.932-32.958 110.337-14.807 109.86 14.33 87.888 33.913 61.618 40.6 39.167 34.391 12.419 14.33q9.553 7.642 26.27 15.284t29.137 10.509l12.419 3.821q-45.855 11.463-67.826 29.614zM512.956 286.082q-53.974 0-92.186 28.66t-38.212 69.26 38.212 69.737 92.186 29.137 91.709-29.137 37.735-69.737-37.735-69.26-91.709-28.66zM102.653 140.875h-34.391v-172.909h200.613v34.391h-166.223v138.52zM102.653 627.125v138.52h166.223v34.391h-200.613v-172.909h34.391zM921.347 627.125h34.391v172.909h-200.613v-34.391h166.223v-138.52zM921.347 140.875v-138.52h-166.223v-34.391h200.613v172.909h-34.391z" />
<glyph unicode="&#xe6f2;" glyph-name="curve" d="M923.971 810.436q-81.429 0-140.359-50.358-49.287-41.786-83.574-121.074-19.287-43.93-34.822-103.93t-23.572-101.252-19.823-117.323q-6.43-35.358-9.642-54.109t-9.108-51.43-10.715-50.358-11.787-42.858-13.393-38.573-15-27.858-18.75-20.357-20.893-5.893q-51.43 0-85.716 92.144-24.644 65.358-51.43 234.647-22.501 137.146-38.573 187.504-13.929 45.001-33.215 68.572-26.786 34.286-65.893 34.286t-69.108-30.001q-23.572-23.572-41.786-65.358-26.786-64.287-42.858-173.575-17.144-122.145-17.144-244.289v0-1.072q0-13.929 9.642-23.572t24.108-9.642 24.108 9.642 9.642 23.572v2.143q1.072 121.074 17.144 234.647 13.929 99.645 38.573 155.36 23.572 54.644 48.215 54.644 5.357 0 11.787-8.572 11.787-15 22.501-47.143 13.929-46.073 35.358-177.86 28.929-175.717 54.644-247.504 22.501-61.072 54.644-94.288 39.643-41.786 95.358-41.786 47.143 0 80.359 36.429 26.786 28.929 46.073 82.501 21.429 61.072 49.287 229.29 12.857 72.859 19.823 112.502t21.965 96.431 32.144 97.501q56.787 129.644 160.718 130.717h1.072q13.929 0 23.572 9.642t9.642 24.108-9.642 24.108-23.572 9.642z" />
<glyph unicode="&#xe713;" glyph-name="uniE713" d="M128.428-64h256.214v896h-256.214v-896zM639.358 832v-896h256.214v896h-256.214z" />
<glyph unicode="&#xe724;" glyph-name="uniE724" d="M159.893 832v-896l704.214 448z" />
<glyph unicode="&#xe769;" glyph-name="uniE769" d="M64-64l635.25 448-635.25 448v-896zM811.25 832v-896h148.75v896h-148.75z" />
<glyph unicode="&#xe76a;" glyph-name="uniE76A" d="M64 832h148.75v-896h-148.75v896zM324.75 384l635.25-448v896z" />
<glyph unicode="&#xe900;" glyph-name="uniE900" d="M332.787 742.359v-259.512c0-29.566-11.759-58.058-32.657-79.023l-56.916-57.117v-321.066h537.573v716.719h-447.999zM288.035 831.999h537.573c24.729 0 44.752-20.092 44.752-44.821v-806.359c0 0 0 0 0 0 0-24.73-20.028-44.782-44.751-44.821h-627.216c-24.724 0.037-44.752 20.091-44.752 44.821 0 0 0 0 0 0v0 384.364c0 11.826 4.704 23.249 13.036 31.582l70.020 70.287c4.027 4.045 6.517 9.625 6.517 15.786 0 0.002 0 0.004 0 0.006v0 304.333c0 24.729 20.025 44.821 44.821 44.821zM646.393 697.607h89.573v-179.213h-89.573v179.213zM512 697.607h89.573v-179.213h-89.573v179.213zM377.607 697.607h89.573v-179.213h-89.573v179.213z" />
<glyph unicode="&#xe901;" glyph-name="pinghua" d="M960-63.998h-896v895.997h896v-895.997zM118.428-9.569h787.14v787.14h-787.14v-787.14zM617.99 264.874c-3.267 0-6.509 0.151-9.749 0.449-60.962 5.663-95.625 62.369-126.201 112.395-24.766 40.525-48.17 78.798-77.165 80.701-22.983 1.463-72.909-18.579-149.456-170.387-6.779-13.409-23.132-18.8-36.541-12.048-13.409 6.78-18.802 23.134-12.049 36.566 36.839 73.061 71.475 124.569 105.839 157.475 31.817 30.456 64.078 44.806 95.82 42.728 57.126-3.786 89.089-56.062 119.989-106.63 26.251-42.924 51.017-83.45 84.81-86.591 41.465-3.861 96.933 48.216 156.309 146.637 7.77 12.864 24.493 16.994 37.361 9.254 12.863-7.77 17.023-24.493 9.254-37.361-70.214-116.379-135.159-173.184-198.22-173.184z" />
<glyph unicode="&#xe902;" glyph-name="ruihua" d="M859.584 111.391h-674.077l337.040 583.774 337.040-583.774zM279.766 165.817h485.53l-242.775 420.489-242.753-420.489zM960-63.999h-896v895.997h896v-895.997zM118.428-9.57h787.14v787.14h-787.14v-787.14z" />
<glyph unicode="&#xe920;" glyph-name="shoushudao" d="M335.048 91.458q-3.491 0-6.821 0.096l-61.714 1.735 253.646 330.557 107.725-77.133-3.298-19.738c-31.289-187.105-199.162-235.517-289.54-235.517zM532.824 337.186l-132.839-173.106c57.905 14.811 134.374 53.517 159.138 154.27zM512-27.424c-220.188 0-443.077 60.074-443.077 174.888 0 75.518 101.729 136.22 272.128 162.382l9.326-62.859c-151.025-23.209-218.959-72.159-218.959-99.523 0-18.187 30.762-47.23 99.476-71.108 74.616-25.926 174.446-40.204 281.112-40.204s206.478 14.278 281.1 40.204c68.714 23.879 99.476 52.922 99.476 71.108 0 27.957-69.731 77.608-224.746 100.389l8.935 62.922c174.26-25.609 278.305-86.658 278.305-163.311 0-114.815-222.895-174.888-443.077-174.888zM608.301 302.821l-118.718 85.023 228.602 360.326c14.008 22.99 36.653 39.537 63.322 45.212l0.639 0.114c5.777 1.227 12.413 1.929 19.214 1.929 21.609 0 41.565-7.091 57.665-19.070l-0.258 0.184 1.255-0.923c24.705-18.531 40.519-47.752 40.519-80.668 0-24.020-8.421-46.072-22.472-63.366l0.147 0.186zM577.586 402.572l19.622-14.052 232.895 283.838c4.929 6.143 7.91 14.033 7.91 22.618 0 11.857-5.686 22.385-14.48 29.008l-0.093 0.067-1.361 1.002c-5.666 4.262-12.82 6.826-20.574 6.826-2.494 0-4.927-0.265-7.271-0.769l0.226 0.042c-9.932-2.057-18.162-8.103-23.089-16.35l-0.088-0.161z" />
<glyph unicode="&#xe9c8;" glyph-name="shoushudao1" d="M853.334 725.734c-3.066 25.22-7.833 36.975-27.381 51.876l-1.228 0.939c-10.714 7.554-33.668 20.85-57.659 15.771-24.749-5.564-45.147-20.946-57.269-41.743l-0.225-0.419-198.726-356.278-211.159-284.72 55.586-1.619q3.006-0.090 6.135-0.090c80.108 0 225.412 40.2 245.499 225.918l224.066 320.346c15.371 19.627 25.44 44.793 22.366 70.017zM667.753 311.463c-55.834-338.681-459.579-233.63-459.579-233.63l171.293 236.521c-168.94-19.227-310.547-75.829-310.547-167.209 0-114.632 222.896-174.594 443.080-174.594s443.080 59.98 443.080 174.594c0 87.16-128.83 142.682-287.326 164.319z" />
<glyph unicode="&#xe9d8;" glyph-name="L" d="M365.339 832q-52.764-4.977-52.764-58.737v-778.524q-4.977-58.737 57.743-58.737h287.716q48.783 0 53.76 48.783-4.977 48.783-53.76 53.76h-238.933v734.72q-4.977 53.76-53.76 58.737z" />
<glyph unicode="&#xec68;" glyph-name="zuidazhi" d="M573.601-4.328c-2.842 2.742-5.297 5.855-7.292 9.272l-0.109 0.204c-4.082 7.126-6.49 15.665-6.49 24.766 0 0.348 0.004 0.698 0.010 1.043l-0.001-0.052c0 20.331 10.066 36.023 30.168 47.11 20.134 11.054 50.302 17.502 90.536 19.311v13.587c0 14.476-1.415 25.891-4.179 34.214-2.797 8.389-7.172 14.476-13.159 18.423-5.988 3.881-13.982 5.823-24.015 5.823-10.857 0-19.608-2.861-26.22-8.554-6.58-5.725-11.58-14.278-14.935-25.694h-27.339v27.142c9.053 5.011 20.059 10.173 31.405 14.659l2.018 0.704c8.883 3.289 17.799 5.823 26.714 7.731 8.883 1.875 17.962 2.797 27.142 2.797 13.817 0 24.871-2.171 33.228-6.58 8.323-4.375 14.606-11.086 18.752-20.134 4.211-9.047 6.283-22.7 6.283-40.925v-72.705c0-10.297 0.066-17.568 0.231-21.811 0.132-4.244 0.526-8.158 1.251-11.777 0.659-3.618 1.743-6.514 3.125-8.685 1.579-2.312 3.647-4.179 6.062-5.482l0.091-0.044c2.731-1.546 7.138-3.125 13.259-4.803v-10.231h-57.243l1.086 29.871-3.159 0.823c-12.106-12.403-23.489-21.154-34.116-26.319-9.819-4.877-21.384-7.732-33.617-7.732-0.118 0-0.234 0-0.352 0.001h0.019c-10.56 0-19.903 2.072-27.963 6.185-3.38 1.716-6.293 3.64-8.96 5.853l0.079-0.063v-4.968c-1.523 1.333-2.479 3.282-2.479 5.452 0 0.562 0.064 1.111 0.186 1.636l-0.009-0.048zM683.941 215.267v476.694c0-0.757-4.211-14.212-12.666-40.3-30.694-92.871-75.238-232.59-133.567-419.122l-54.117-183.077c-10.757-36.089-18.423-54.117-23.029-54.117-5.363 0-11.12 9.211-17.271 27.634-22.272 69.843-85.206 244.104-188.835 522.751l-46.025 123.203c0.757-14.574 1.151-34.543 1.151-59.874v-374.217c0-140.474 1.151-211.469 3.454-213.015 5.363-9.968 23.784-14.969 55.27-14.969 25.331 0 37.997-3.454 37.997-10.363 0-7.664-8.060-11.514-24.18-11.514-9.968 0-19.18 0.396-27.634 1.151-8.531 0.685-18.562 1.101-28.682 1.151h-0.104l-132.414-3.454c-13.817 0-20.726 3.454-20.726 10.363 0 7.664 21.877 11.909 65.632 12.666 18.423 0 29.18 3.060 32.24 9.211s4.606 26.088 4.606 59.874v551.537c0 63.723-0.757 98.266-2.303 103.63-2.561 10.179-9.862 18.239-19.358 21.807l-0.216 0.070c-9.968 3.849-31.483 6.909-64.48 9.211-12.271 0.757-18.423 4.211-18.423 10.363 0 8.456 11.12 12.666 33.391 12.666 3.060 0 9.606-0.396 19.574-1.151h59.874c45.3 0 77.146 0.396 95.57 1.151 3.849-9.968 26.483-70.237 67.934-180.775 17.666-46.057 67.178-180.381 148.534-403.002 14.574 49.906 29.543 99.023 44.906 147.384l122.053 381.124c6.909 22.272 13.060 40.696 18.423 55.27l172.715 1.151c25.331 0 39.905-1.151 43.754-3.454s5.757-5.757 5.757-10.363c0-7.664-6.514-11.514-19.574-11.514-21.483 0-36.089-0.757-43.754-2.303-18.423-3.060-31.090-9.211-37.997-18.423-3.849-5.363-5.757-50.268-5.757-134.717v-390.337h-111.69zM680.389 80.22c-28.292-0.295-49.446-4.046-63.494-11.285s-21.088-18.16-21.088-32.8c0-7.928 1.612-14.178 4.803-18.785s7.237-7.765 12.106-9.508c4.869-1.743 10.658-2.632 17.337-2.632 9.475 0 18.062 2.303 25.792 6.909s13.751 10.462 18.062 17.535c4.309 7.106 6.482 14.146 6.482 21.12v29.443zM860.374 105.485l27.174 34.445c2.928 3.751 5.263 7.401 7.073 10.956 1.701 3.176 2.71 6.946 2.731 10.947v0.006c0.002 0.075 0.004 0.163 0.004 0.253 0 3.080-1.374 5.839-3.542 7.697l-0.013 0.011c-3.075 2.371-6.833 4.010-10.93 4.592l-0.124 0.015v10.199h68.263v-10.199c-5.263-1.546-10.658-4.54-16.186-9.014-5.494-4.442-12.204-11.612-20.134-21.483l-43.228-53.065 47.603-64.085c6.809-9.211 12.961-16.218 18.39-21.12 5.428-4.869 10.857-8.323 16.285-10.429v-10.231h-83.956v10.231c11.548 1.381 17.337 5.725 17.337 12.961 0 0.035 0 0.076 0 0.117 0 2.946-0.531 5.765-1.503 8.372l0.055-0.166c-1.47 3.522-3.304 6.559-5.514 9.28l0.054-0.069-30.266 42.176-32.142-41.78c-1.98-2.47-3.825-5.237-5.413-8.161l-0.145-0.295c-1.246-2.436-1.976-5.314-1.976-8.364 0-0.102 0.001-0.203 0.002-0.305v0.016c0-3.751 1.315-6.843 3.849-9.277 2.598-2.468 6.646-3.948 12.239-4.508v-10.231h-69.744v10.231c4.606 1.645 8.719 3.751 12.403 6.251 3.685 2.534 7.468 5.757 11.285 9.739 3.816 3.948 8.883 9.771 15.133 17.435l43.425 53.854-44.445 60.992c-4.831 6.771-9.634 12.693-14.769 18.303l0.131-0.145c-2.958 3.187-6.235 6.004-9.802 8.426l-0.198 0.128c-2.647 1.748-5.709 3.174-8.973 4.119l-0.237 0.058v10.231h81.883v-10.199c-11.021-1.679-16.516-6.020-16.516-12.961 0-3.225 0.723-6.415 2.205-9.606 1.448-3.225 3.717-6.745 6.777-10.658l25.463-35.694z" />
<glyph unicode="&#xec69;" glyph-name="zuixiaozhi" d="M558.772 2.989c-1.457 1.282-2.372 3.15-2.372 5.232 0 0.051 0.001 0.1 0.002 0.151v-0.007c0 1.992 0.789 3.729 2.37 5.185v-10.526zM662.618 315.637v363.23c0-0.728-4.046-13.657-12.171-38.725-29.494-89.243-72.298-223.502-128.348-402.746l-52.002-175.924c-10.337-34.679-17.703-52.002-22.13-52.002-5.152 0-10.685 8.851-16.597 26.554-21.402 67.113-81.877 234.567-181.457 502.326l-44.258 118.39c0.728-14.005 1.106-33.193 1.106-57.535v-359.595c0-134.987 1.106-203.206 3.32-204.692 5.152-9.578 22.856-14.383 53.11-14.383 24.342 0 36.513-3.32 36.513-9.959 0-7.366-7.745-11.065-23.236-11.065-9.578 0-18.43 0.38-26.554 1.106-8.197 0.657-17.837 1.059-27.562 1.106h-0.1l-127.241-3.32c-13.277 0-19.916 3.32-19.916 9.959 0 7.366 21.022 11.443 63.067 12.171 17.703 0 28.041 2.94 30.98 8.851s4.426 25.070 4.426 57.535v529.987c0 61.233-0.728 94.428-2.212 99.58-2.462 9.781-9.477 17.526-18.602 20.954l-0.208 0.067c-9.578 3.699-30.253 6.639-61.961 8.851-11.791 0.728-17.703 4.046-17.703 9.959 0 8.125 10.685 12.171 32.087 12.171 2.94 0 9.231-0.38 18.81-1.106h57.535c43.53 0 74.132 0.38 91.835 1.106 3.699-9.578 25.448-67.493 65.28-173.712 16.976-44.258 64.553-173.332 142.731-387.255 14.005 47.956 28.388 95.154 43.151 141.625l117.283 366.233c6.639 21.402 12.55 39.105 17.703 53.11l165.967 1.106c24.342 0 38.347-1.106 42.045-3.32s5.532-5.532 5.532-9.959c0-7.366-6.26-11.065-18.81-11.065-20.643 0-34.679-0.728-42.045-2.212-17.703-2.94-29.874-8.851-36.513-17.703-3.699-5.152-5.532-48.304-5.532-129.454v-280.247h-107.325zM698.847 270.020v-38.947h-36.924v38.947h36.924zM641.47 9.341c5.216 1.581 8.914 3.004 11.128 4.204 2.268 1.26 4.15 2.951 5.593 4.975l0.034 0.052c1.777 2.814 3.046 6.132 3.585 9.689l0.018 0.142c0.886 4.426 1.295 11.318 1.295 20.674v87.473c0 8.567-0.127 15.49-0.38 20.674-0.076 4.566-1.115 8.871-2.926 12.743l0.080-0.193c-1.591 3.107-4.119 5.544-7.209 6.979l-0.093 0.040c-4.032 1.755-8.724 3.124-13.617 3.878l-0.324 0.042v10.622l46.755 1.801h12.235v-143.459c0-11.507 0.537-19.504 1.581-23.995 1.106-4.457 3.162-7.903 6.133-10.212 3.035-2.34 7.935-4.393 14.763-6.133v-9.831h-78.653v9.831zM951.085-0.49h-79.031v9.831c5.185 1.581 8.947 3.004 11.223 4.204 2.298 1.244 4.204 2.936 5.656 4.976l0.034 0.051c1.797 2.841 3.078 6.191 3.618 9.784l0.018 0.142c0.847 5.273 1.332 11.354 1.332 17.547 0 1-0.013 1.996-0.038 2.991l0.003-0.148v52.572c0.002 0.409 0.003 0.893 0.003 1.379 0 8.48-0.287 16.893-0.854 25.229l0.061-1.127c-0.383 6.854-1.354 13.271-2.869 19.472l0.151-0.727c-1.005 4.331-2.596 8.151-4.712 11.614l0.097-0.171c-3.558 5.366-8.697 9.431-14.747 11.571l-0.206 0.064c-3.417 1.094-7.349 1.726-11.429 1.726-0.428 0-0.853-0.006-1.279-0.020l0.063 0.002c-5.216 0-10.148-1.042-14.858-3.098-5.923-2.92-11.008-6.51-15.448-10.767l0.020 0.019c-5.627-5.058-9.706-10.116-12.266-15.047-2.529-4.932-3.793-10.622-3.793-17.070v-74.827c0-11.507 0.537-19.504 1.581-23.995 1.106-4.457 3.162-7.903 6.133-10.212 3.004-2.34 7.935-4.393 14.763-6.133v-9.831h-78.653v9.831c5.216 1.581 8.914 3.004 11.128 4.204 2.268 1.26 4.15 2.951 5.593 4.975l0.034 0.052c1.777 2.814 3.046 6.132 3.585 9.689l0.018 0.142c0.853 4.426 1.295 11.318 1.295 20.674v87.473c0 8.567-0.127 15.49-0.411 20.674-0.054 4.559-1.073 8.865-2.862 12.743l0.079-0.194c-1.598 3.112-4.139 5.549-7.239 6.979l-0.095 0.040c-4.032 1.755-8.724 3.124-13.617 3.878l-0.324 0.042v10.622l46.945 1.801h12.235l-2.212-32.687 2.845-0.822c9.863 10.053 17.862 17.198 23.962 21.497 6.069 4.268 12.235 7.586 18.462 9.926 5.754 2.203 12.411 3.478 19.365 3.478 0.139 0 0.277-0.001 0.415-0.002h-0.020c7.239 0 13.688-0.822 19.379-2.465 11.226-3.223 20.335-10.664 25.684-20.455l0.111-0.221c2.782-5.152 4.899-11.349 6.322-18.557 1.392-7.239 2.087-16.406 2.087-27.504v-75.649c0-9.231 0.253-15.933 0.789-20.074 0.333-3.575 1.348-6.848 2.912-9.781l-0.066 0.139c1.445-2.361 3.394-4.281 5.709-5.648l0.077-0.042c2.529-1.581 6.955-3.193 13.277-4.932v-9.831z" />
<glyph unicode="&#xec6c;" glyph-name="pingjunzhi1" d="M957.156-30.015c0-8.131-8.549-12.213-25.647-12.213h-13.433c-11.41 0-32.173 0.42-62.286 1.221-20.047 0.651-44.422 1.094-68.874 1.219l-0.739 0.004c-24.425 0-52.934-0.42-85.49-1.221h-74.498c-17.097 0-25.647 3.664-25.647 10.992 0 8.131 11.794 12.213 35.417 12.213 41.524 0 66.751 4.467 75.719 13.433 4.082 4.082 6.107 31.334 6.107 81.826v632.624c0-0.803-4.467-15.074-13.433-42.745-32.556-98.505-79.803-246.699-141.669-444.547l-57.401-194.184c-11.41-38.278-19.541-57.401-24.425-57.401-5.688 0-11.794 9.77-18.32 29.31-23.622 74.079-90.375 258.912-200.291 554.462l-48.851 130.677c0.803-15.457 1.221-36.638 1.221-63.507v-396.917c0-148.997 1.221-224.297 3.664-225.937 5.688-10.572 25.228-15.877 58.622-15.877 26.869 0 40.302-3.664 40.302-10.992 0-8.131-8.549-12.213-25.647-12.213-10.572 0-20.344 0.42-29.31 1.221-9.048 0.726-19.688 1.168-30.422 1.221h-0.111l-140.448-3.664c-14.656 0-21.984 3.664-21.984 10.992 0 8.131 23.205 12.632 69.614 13.433 19.541 0 30.95 3.244 34.197 9.77s4.885 27.671 4.885 63.507v584.994c0 67.59-0.803 104.228-2.443 109.916-2.717 10.796-10.46 19.345-20.532 23.129l-0.229 0.075c-10.572 4.082-33.394 7.328-68.391 9.77-13.016 0.803-19.541 4.467-19.541 10.992 0 8.968 11.794 13.433 35.417 13.433 3.244 0 10.189-0.42 20.761-1.221h63.507c48.049 0 81.826 0.42 101.367 1.221 4.082-10.572 28.089-74.498 72.055-191.742 18.738-48.851 71.253-191.323 157.546-427.448 15.457 52.934 31.334 105.031 47.63 156.325l129.456 404.244c7.328 23.622 13.853 43.163 19.541 58.622l183.192 1.221c26.869 0 42.326-1.221 46.409-3.664s6.107-6.107 6.107-10.992c0-8.131-6.908-12.213-20.761-12.213-22.785 0-38.278-0.803-46.409-2.443-19.541-3.244-32.974-9.77-40.302-19.541-4.082-5.688-6.107-53.318-6.107-142.89v-567.897c0-32.556 3.244-51.713 9.77-57.401 10.572-7.328 37.058-10.992 79.383-10.992h7.328c16.296 0 24.425-4.082 24.425-12.213z" />
<glyph unicode="&#xe6077;" glyph-name="chizi" d="M578.7 33.9h-405.8c-9.5 0-15.3 10.8-10.3 19.3l405.8 693.5c6.4 10.9 22.5 6.2 22.5-6.6v-693.5c0-7-5.5-12.7-12.2-12.7zM566.9 696.6v-638.7h-373.7l373.7 638.7M578.6 752.8c-3.9 0-7.8-1.9-10.2-6.1l-405.8-693.5c-4.9-8.4 0.9-19.3 10.3-19.3h405.8c6.7 0 12.1 5.7 12.1 12.7v693.5c0.1 7.9-6 12.7-12.2 12.7zM470.5 323.9v-154.5h-90.4l90.4 154.5M487.1 392.9c-2.4 0-4.7-1.1-6.2-3.6l-136.2-232.9c-2.8-4.9 0.7-11 6.3-11h136.3c4 0 7.3 3.3 7.3 7.3v232.9c-0.1 4.5-3.8 7.3-7.5 7.3zM806.8 34.1h-151.2c-6.7 0-12.1 5.4-12.1 12.1v694.7c0 6.7 5.4 12.1 12.1 12.1h151.2c6.7 0 12.1-5.4 12.1-12.1v-694.7c0.1-6.7-5.4-12.1-12.1-12.1zM795 729v-670.9h-127.6v670.9h127.6M806.8 753h-151.2c-6.7 0-12.1-5.4-12.1-12.1v-694.7c0-6.7 5.4-12.1 12.1-12.1h151.2c6.7 0 12.1 5.4 12.1 12.1v694.7c0.1 6.6-5.4 12.1-12.1 12.1zM754.1 668.8h43.7M754.1 680.8h43.7v-24h-43.7zM754.1 606.9h43.7M754.1 618.9h43.7v-24h-43.7zM754.1 479.6h43.7M754.1 491.6h43.7v-24h-43.7zM754.1 420.2h43.7M754.1 432.2h43.7v-24h-43.7zM731.2 542.6h66.6M731.2 554.6h66.6v-24h-66.6zM754.1 301.4h43.7M754.1 313.4h43.7v-24h-43.7zM754.1 238.3h43.7M754.1 250.3h43.7v-24h-43.7zM731.2 359.6h66.6M731.2 371.5h66.6v-24h-66.6zM754.1 113.5h43.7M754.1 125.5h43.7v-24h-43.7zM754.1 51.6h43.7M754.1 63.6h43.7v-24h-43.7zM731.2 176.5h66.6M731.2 188.5h66.6v-24h-66.6z" />
</font>
</defs>
</svg>
