<?xml version="1.0" standalone="no"?>
<!DOCTYPE svg PUBLIC "-//W3C//DTD SVG 1.1//EN" "http://www.w3.org/Graphics/SVG/1.1/DTD/svg11.dtd" >
<svg xmlns="http://www.w3.org/2000/svg">
<metadata>Generated by IcoMoon</metadata>
<defs>
<font id="iconfont" horiz-adv-x="1024">
<font-face units-per-em="1024" ascent="896" descent="-128" />
<missing-glyph horiz-adv-x="1024" />
<glyph unicode="&#x20;" horiz-adv-x="0" d="" />
<glyph unicode="&#x78;" glyph-name="x" horiz-adv-x="1001" d="M294.188 537.084q-25.435-0.942-49.929-0.942h-78.192q-16.957 0-34.386-5.652t-30.618-17.427-21.667-30.146-8.478-42.864v-71.597h859.159v38.625q0 15.073-0.471 28.262t-0.471 16.957q0 12.247-4.71 27.32t-16.015 27.791-29.674 21.196-46.633 8.478h-125.293v-91.38h-412.622v91.38zM929.137 317.584v-48.987q0-21.667 0.471-48.987t0.471-54.64-9.891-44.747-24.493-28.262-31.088-15.073-29.674-4.239q-13.188-0.942-27.791-0.471t-27.791 0.471h-30.146l-42.393 120.583h-413.565l-41.45-120.583h-59.35q-18.842 0-42.393 0.942-23.552 0-38.625 8.949t-24.023 21.667-12.717 27.791-3.768 28.262v157.323h858.217zM183.026 258.235q-11.305 0-19.783-8.008t-8.478-20.254 8.478-20.254 19.783-8.008q12.247 0 20.725 8.008t8.478 20.254-8.478 20.254-20.725 8.008zM327.162 141.419q-7.537-24.493-13.188-45.218-4.71-17.899-9.891-34.857t-7.066-23.552-2.827-14.131 0.942-13.659 8.949-9.891 20.254-3.768h343.852q21.667 0 32.030 11.305t1.884 35.798q-4.71 12.247-8.949 28.732t-8.949 32.501q-4.71 17.899-10.363 36.74h-346.679zM346.002 494.693v214.79q0 10.363 2.356 21.667t9.42 20.254 19.313 14.603 32.030 5.652h177.107q29.203 0 48.516-13.659t19.313-49.457v-213.848h-308.053z" />
<glyph unicode="&#xe627;" glyph-name="more-load" d="M904 328h-112c-30.7 0-56 25.3-56 56s25.3 56 56 56h112c30.7 0 56-25.3 56-56s-24.4-56-56-56zM750.4 543c-21.7-21.7-56.9-21.7-79.5 0-21.7 21.7-21.7 56.9 0 79.5l79.5 79.5c21.7 21.7 56.9 21.7 79.5 0 21.7-21.7 21.7-56.9 0-79.5l-79.5-79.5zM512-64c-30.7 0-56 25.3-56 56v112c0 30.7 25.3 56 56 56s56-25.3 56-56v-112c0-30.7-24.4-56-56-56zM512 608c-30.7 0-56 25.3-56 56v112c0 30.7 25.3 56 56 56s56-25.3 56-56v-112c0-30.7-24.4-56-56-56zM274.4 67.9c-21.7-21.7-56.9-21.7-79.5 0-21.7 21.7-21.7 56.9 0 79.5l79.5 79.5c21.7 21.7 57.8 21.7 79.5 0s21.7-56.9 0-79.5l-79.5-79.5zM274.4 543l-79.4 79.4c-21.7 21.7-21.7 57.8 0 79.5s56.9 21.7 79.5 0l79.5-79.5c21.7-21.7 21.7-57.8 0-79.5-21.7-22.5-57-22.5-79.6 0.1zM288 384c0-30.7-25.3-56-56-56h-112c-30.7 0-56 25.3-56 56s25.3 56 56 56h112c31.6 0 56-24.4 56-56zM750.4 225.9l79.5-79.5c21.7-21.7 21.7-56.9 0-79.5-21.7-21.7-56.9-21.7-79.5 0l-79.4 79.5c-21.7 21.7-21.7 56.9 0 79.5 21.6 21.7 56.9 21.7 79.4 0z" />
<glyph unicode="&#xe628;" glyph-name="more-measure" d="M949.85 614.45l-207.4 207.4c-13.5 13.5-36.1 13.5-49.6 0l-618.7-618.7c-13.5-13.5-13.5-36.1 0-49.6l207.4-207.4c13.5-13.5 36.1-13.5 49.6 0l618.7 618.7c13.5 14.4 13.5 36 0 49.6zM306.85 21.050l-157.8 157.8 39.7 39.7 27.1-27.1c13.5-13.5 36.1-13.5 49.6 0s13.5 36.1 0 49.6l-27.1 27.1 39.7 39.7 27.1-27.1c13.5-13.5 36.1-13.5 49.6 0s13.5 36.1 0 49.6l-27.1 27.1 39.7 39.7 27.1-27.1c13.5-13.5 36.1-13.5 49.6 0s13.5 36.1 0 49.6l-27.1 27.1 39.7 39.7 27.1-27.1c13.5-13.5 36.1-13.5 49.6 0s13.5 36.1 0 49.6l-27.1 27.1 39.7 39.7 27.1-27.1c13.5-13.5 36.1-13.5 49.6 0s13.5 36.1 0 49.6l-27.1 27.1 39.7 39.7 27.1-27.1c13.5-13.5 36.1-13.5 49.6 0s13.5 36.1 0 49.6l-27.1 27.1 34.3 34.3 157.8-157.8-570.1-570.1z" />
<glyph unicode="&#xe629;" glyph-name="next" d="M274.188 745.15l350.4-361.5-349.6-360.7c-19-20.6-19-51.4 0-72 17.4-19 47.5-19.8 66.4-3.2 0.8 0.8 2.4 1.6 3.2 3.2l420 433.4-420.8 432.7c-17.4 19-47.5 19.8-66.4 3.2-0.8-0.8-2.4-1.6-3.2-3.2-19.7-19.7-19.7-51.4 0-71.9z" />
<glyph unicode="&#xe62a;" glyph-name="more-filter" d="M500.7 351.95l-36.2 37.9-72.3-74.9 36.2-37.9 327.3-341.1 72.3 74.9-36.2 37.9-291.1 303.2zM387.7 470.15l-19.9 20.8-36.2 37.9-72.3-74.9 92.3-96.6 72.3 74.9-36.2 37.9zM621.9 528.85s0 126.3 121.2 151.6c-121.2 25.3-121.2 151.6-121.2 151.6s0-126.3-121.2-151.6c121.2-25.3 121.2-151.6 121.2-151.6zM250.3 369.15s-38.9-141.7-186.3-128.1c132-69.5 93.1-211.1 93.1-211.1s38.9 141.6 186.3 128c-132 69.5-93.1 211.2-93.1 211.2zM887.7 402.55s0-75.8-72.3-91.1c72.3-15.3 72.3-91.1 72.3-91.1s0 75.8 72.3 91.1c-72.3 15.3-72.3 91.1-72.3 91.1z" />
<glyph unicode="&#xe62b;" glyph-name="tab-array" d="M64 424.4h407.3v407.6h-407.3v-407.6zM552.7 832v-407.6h407.3v407.6h-407.3zM64-64h407.3v407.6h-407.3v-407.6zM552.7-64h407.3v407.6h-407.3v-407.6z" />
<glyph unicode="&#xe62c;" glyph-name="more-location" d="M801.494 99.8s11.7-8.1 16.3-13.6c6.3-9 9.9-20.8 8.1-31.6-2.7-19.9-18.1-35.2-38-38.9-7.2-0.9-14.5 0-20.8 1.8-2.7 0.9-3.6 0.9-5.4 2.7l-249.4 123.9-249.5-123.9-8.1-2.7c-23.5-6.3-48.8 8.1-55.1 31.6-5.4 20.8 4.5 41.6 23.5 51.5l289.2 143.7 289.2-144.5zM916.294 350.1h-807.1c-12.7 0-24.4 5.4-33.4 14.5-11.7 12.7-15.4 31.6-8.1 47.9 7.2 16.3 23.5 26.2 40.7 27.1h810.7s4.5 0 7.2-0.9c4.5-0.9 9-3.6 13.6-6.3 19-12.7 26.2-38 14.5-58.7-6.3-11.7-18.1-20.8-31.6-22.6-2-1-2.9-1-6.5-1zM785.194 751.4c7.2-0.9 13.6-2.7 19.9-6.3 4.5-2.7 8.1-6.3 11.7-9.9 15.4-19 11.7-47-7.2-62.4-0.9-0.9-1.8-0.9-2.7-1.8-1.8-1.8-2.7-1.8-5.4-2.7l-289.2-143.8-289.2 143.7-2.7 1.8c-6.3 3.6-11.7 9-15.4 14.5-3.6 5.4-5.4 10.8-6.3 17.2-3.6 24.4 13.6 47 38 50.6 7.2 0.9 14.5 0 20.8-1.8 2.7-0.9 3.6-0.9 5.4-2.7l249.4-123.8 249.4 123.8 2.7 0.9c2.7 0.9 5.4 1.8 9 2.7 2.7 0.9 3.6 0.9 6.3 0.9 2.8-0.9 2.8-0.9 5.5-0.9z" />
<glyph unicode="&#xe62d;" glyph-name="more-hide" d="M710.014 317.2c32.5 12.6 65 32.5 93.9 48.7l56.9-56.9c16.2-16.2 37-16.2 53.3 0 16.2 16.2 16.2 37 0 53.3l-53.3 53.3c37 37 69.5 82.1 85.7 130.9 4.5 16.2 8.1 32.5 12.6 45.1 4.5 20.8-8.1 40.6-28.9 45.1s-40.6-8.1-45.1-28.9c-4.5-12.6-4.5-24.4-8.1-37-45.1-122.7-187.7-221.1-362.8-221.1-192.2 0-334.9 110.1-375.5 257.2-4.5 24.4-24.4 37-45.1 32.5s-32.6-28.9-29-48.7c16.2-65 53.3-126.4 102-176l-53.3-53.3c-16.2-16.2-16.2-40.6 0-53.3 16.2-16.2 37-16.2 53.3 0l61.4 56.9c28.9-20.8 61.4-37 93.9-48.7l-53.3-85.7c-12.6-16.2-4.5-40.6 12.6-53.3 16.2-12.6 40.6-4.5 53.3 12.6l56.9 102c28.9-8.1 56.9-12.6 85.7-12.6v-114.6c0-20.8 16.2-37 37-37s37 16.2 37 37v115.5c28.9 0 56.9 8.1 85.7 12.6l56.9-98.4c12.6-16.2 32.5-24.4 53.3-12.6 16.2 12.6 24.4 32.5 12.6 53.3-0.9-3.6-49.6 82.1-49.6 82.1z" />
<glyph unicode="&#xe62e;" glyph-name="tab-more" d="M147.9 467.95c-46.3 0-83.9-37.7-83.9-83.9s37.7-83.9 83.9-83.9 83.9 37.7 83.9 83.9c0.1 46.3-37.6 83.9-83.9 83.9zM512.3 467.95c-46.3 0-83.9-37.7-83.9-83.9s37.6-84 83.9-84 83.9 37.7 83.9 83.9-37.7 84-83.9 84zM876 467.95c-46.3 0-83.9-37.7-83.9-83.9s37.7-84 83.9-84 84 37.7 84 84-37.7 83.9-84 83.9z" />
<glyph unicode="&#xe62f;" glyph-name="stop" d="M261.547 831.95c-65.5 0-118.3-52.8-118.3-118.3v-659.3c0-65.5 52.8-118.3 118.3-118.3s118.3 52.8 118.3 118.3v658.6c0 66.2-52.8 119-118.3 119zM762.447 831.95c-65.5 0-118.3-52.8-118.3-118.3v-659.3c0-65.5 52.8-118.3 118.3-118.3s118.3 52.8 118.3 118.3v658.6c0.7 66.2-52.9 119-118.3 119z" />
<glyph unicode="&#xe630;" glyph-name="more-mpr" d="M894 554.7v3.6c-2.7 37.9-26.2 78.6-58.7 98.5l-264.7 159.9c-9 5.4-18.1 9-28 10.8-9.9 2.7-20.8 4.5-32.5 4.5s-24.4-0.9-34.3-4.5c-8.1-0.9-16.3-4.5-24.4-9l-265.5-161.7c-32.5-19-56-60.5-58.7-98.5v-349.5c2.7-37.9 26.2-78.6 58.7-98.5l266.5-159c9-5.4 18.1-9 28-10.8 9.9-2.7 20.8-4.5 32.5-4.5s24.4 0.9 34.3 4.5c8.1 0.9 16.3 4.5 24.4 9l266.5 159c32.5 19.9 56 60.5 58.7 98.5v346.8c-2.8 0-2.8 0.9-2.8 0.9zM480.3 322.6v-317l-263.7 158s-0.9 0-0.9 0.9c0 0 0.9 0 0.9 0.9l151.7 90.3 79.5-47.9v32.5l-71.4 43.4 67.7 40.6c-7.2 7.2-13.5 12.6-19.9 19.9l-62.3-37v100.3c-8.1 3.6-16.3 8.1-24.4 12.6h-3.6v-113.8l-149.9-89.4v336l266.5-159c3.6-2.7 7.2-4.5 9.9-8.1 12.6-12.6 20.8-29.8 20.8-49.7 0-6.3 0-9.9-0.9-13.5zM510.1 437.3c-9.9 0-20.8 2.7-29.8 7.2l-264.6 159s-0.9 0-0.9 0.9c0 0 0.9 0 0.9 0.9l264.6 159v-184.3l-84-48.8c8.1-5.4 16.3-11.7 22.6-19l76.8 45.2v-74.1h0.9c8.1 0 17.2 0 26.2-0.9v75.9l71.4-43.4h0.9l24.4 17.2-80.4 48.8v184.3l264.6-160.8s0.9 0 0.9-0.9c0 0-0.9 0-0.9-0.9l-263.8-158.1c-9-4.5-18.9-7.2-29.8-7.2zM834.4 216.9l-149.9 89.4v118.4h-5.4c-7.2-4.5-15.4-8.1-21.7-12.6v-104.8l-65.9 39.7c-5.4-7.2-11.7-13.5-17.2-21.7l68.6-41.5-68.6-41.5v-31.6l75.9 46.1 151.7-92.3s0.9 0 0.9-0.9c0 0-0.9 0-0.9-0.9l-264.6-159v318.9c-0.9 3.6-0.9 8.1-0.9 11.7 0 19.9 8.1 37 20.8 49.7 3.6 3.6 7.2 7.2 9.9 9l264.6 159v-335.1h2.7z" />
<glyph unicode="&#xe631;" glyph-name="play" d="M819.325 469.972l-527.3 342.1c-81.8 46.9-148.7 8.2-148.7-85.5v-685c0-94.5 66.9-132.4 148.7-85.5l527.3 342.1c81.8 47.6 81.8 124.2 0 171.8z" />
<glyph unicode="&#xe632;" glyph-name="more-rotate" d="M675.737 145.25c-49.7-35.2-108.3-53.3-167.9-52.4-8.1 0-15.3 0.9-23.5 0.9-2.7 0-6.3 0.9-9.9 0.9-6.3 0.9-11.7 1.8-18.1 2.7l-10.8 2.7c-5.4 1.8-11.7 2.7-17.1 4.5l-8.1 2.7c-6.3 1.8-12.6 4.5-19 7.2-1.8 0.9-2.7 0.9-4.5 1.8-7.2 3.6-14.4 7.2-21.7 10.8 0 0-0.9 0-0.9 0.9-24.4 13.5-46 29.8-65 49.6l-0.9 0.9c-6.3 6.3-11.7 12.6-17.1 19-0.9 1.8-1.8 2.7-3.6 4.5-38.8 49.6-63.2 112.8-63.2 181.4h66.8c1.8 0 3.6 0.9 4.5 2.7s0.9 3.6 0 4.5l-111 171.5c-0.9 0.9-2.7 1.8-3.6 1.8-1.8 0-2.7-0.9-3.6-1.8l-112.9-170.4c-0.9-1.8-0.9-3.6 0-5.4s2.7-2.7 4.5-2.7h66.8c0-80.3 24.4-155.2 66.8-217.5 0.9-0.9 0.9-1.8 1.8-2.7 4.5-6.3 9-11.7 13.5-18.1 1.8-2.7 3.6-4.5 5.4-7.2 7.2-8.1 14.4-16.2 21.7-24.4l1.8-1.8c25.3-25.3 53.3-46.9 84.8-65 0.9-0.9 1.8-0.9 2.7-1.8 9-4.5 18.1-9 27.1-13.5 2.7-0.9 4.5-1.8 7.2-2.7 8.1-3.6 16.2-6.3 24.4-9 3.6-0.9 8.1-2.7 11.7-3.6 7.2-1.8 14.4-3.6 21.7-5.4 4.5-0.9 9.9-2.7 14.4-3.6 1.8 0 3.6-0.9 6.3-1.8 7.2-0.9 14.4-1.8 20.8-2.7 2.7 0 5.4-0.9 7.2-0.9 12.6-0.9 25.3-1.8 37.9-1.8 76.7 0 151.6 23.5 215.7 69.5 20.8 14.4 25.3 43.3 10.8 64.1-15.2 21.5-43.2 26-63.9 11.6zM959.137 381.75c-0.9 1.8-2.7 2.7-4.5 2.7h-65.9c0 80.3-24.4 155.2-65.9 216.6-0.9 0.9-0.9 1.8-1.8 2.7-5.4 7.2-10.8 14.4-16.2 21.7-0.9 0.9-0.9 1.8-1.8 2.7-37.9 46.9-85.7 83.9-140.8 107.4-1.8 0.9-2.7 1.8-4.5 1.8-9 3.6-17.1 7.2-26.2 9.9-3.6 0.9-6.3 2.7-9.9 3.6-8.1 2.7-15.3 4.5-23.5 6.3l-13.5 2.7c-1.8 0-4.5 0.9-6.3 1.8-6.3 0.9-11.7 1.8-18.1 2.7-4.5 0.9-8.1 0.9-12.6 1.8-9.9 0.9-19.9 0.9-29.8 1.8h-6.3c-76.7 0-150.7-23.5-214.8-69.5-20.8-14.4-25.3-43.3-10.8-64.1 14.4-20.8 42.4-26.2 63.2-11.7 49.6 35.2 107.4 53.3 166.1 52.3 8.1 0 17.1-0.9 25.3-0.9 2.7 0 5.4-0.9 7.2-0.9 7.2-0.9 13.5-1.8 19.9-3.6 2.7-0.9 5.4-0.9 9-1.8 6.3-1.8 12.6-2.7 19.9-5.4 1.8-0.9 3.6-1.8 6.3-1.8 7.2-2.7 14.4-5.4 21.7-8.1 0.9 0 1.8-0.9 1.8-0.9 42.4-18.1 79.4-46.9 108.3-82.1 0 0 0-0.9 0.9-0.9 40.6-50.5 65-114.6 65-185h-66.8c-1.8 0-3.6-0.9-4.5-2.7s-0.9-3.6 0-5.4l111.9-170.6c0.9-0.9 2.7-1.8 3.6-1.8 1.8 0 2.7 0.9 3.6 1.8l111.7 170.5c0 2.8 0 4.6-0.9 6.4z" />
<glyph unicode="&#xe633;" glyph-name="tab-contrast" d="M512 832c-247.4 0-448-200.6-448-448s200.6-448 448-448 448 200.6 448 448-200.6 448-448 448zM512-16.7c-220.5 0-400.7 180.2-400.7 400.7s180.2 400.7 400.7 400.7 400.7-180.2 400.7-400.7-180.2-400.7-400.7-400.7zM512 717.5v-666.4c183.9-1.1 332.4 148.4 332.4 332.4 0 184.4-148.5 334-332.4 334z" />
<glyph unicode="&#xe634;" glyph-name="tab-move" d="M431.65 669.3l41.4 40.8v-105.9c0-22 17.7-39.8 39.8-39.8h6.5c22.1 0 39.8 17.7 39.8 39.8v106l41.4-40.8c15.6-15.6 40.9-15.6 56.5 0s15.6 40.3 0 55.9l-84.5 83.7c-31.2 30.6-81.7 30.6-112.9 0l-83.9-83.8c-15.6-15.6-15.6-40.3 0-55.9s40.3-15.6 55.9 0zM936.65 435.6l-84.4 83.8c-15.6 15.6-40.9 15.6-56.5 0s-15.6-40.3 0-55.9l45.7-45.7h-115.6c-22.1 0-39.8-17.7-39.8-39.8v-6.4c0-22 17.7-39.8 39.8-39.8h107l-37.1-37.1c-15.6-15.6-15.6-40.3 0-55.9s40.9-15.6 56.5 0l84.4 83.8c31.2 32.4 31.2 82.4 0 113zM298.25 418.4h-116.2l45.7 45.7c15.6 15.6 15.6 40.3 0 55.9s-40.9 15.6-56.5 0l-83.9-84.4c-31.2-30.6-31.2-81.1 0-111.8l84.4-83.8c15.6-15.6 40.9-15.6 56.5 0s15.6 40.3 0 55.9l-37 37.1h107c22.1 0 39.8 17.7 39.8 39.8v5.9c0 22-17.7 39.7-39.8 39.7zM601.050 98.7l-41.4-40.8v109.6c0 22-17.7 39.8-39.8 39.8h-6.5c-22.1 0-39.8-17.7-39.8-39.8v-109.6l-41.4 40.8c-15.6 15.6-40.9 15.6-56.5 0s-15.6-40.3 0-55.9l84.4-83.8c31.2-30.6 81.7-30.6 112.9 0l84.4 83.8c15.6 15.6 15.6 40.8-0.5 56.4-15.5 15.1-40.7 14.5-55.8-0.5z" />
<glyph unicode="&#xe635;" glyph-name="last" d="M749.775 745.050c19.8 20.6 19.8 52.2 0 72-0.8 1.6-2.4 2.4-3.2 3.2-19 16.6-49 15.8-66.4-3.2l-420.8-432.7 420-433.4c0.8-1.6 2.4-2.4 3.2-3.2 19-16.6 49-15.8 66.4 3.2 19 20.6 19 51.4 0 72l-349.6 360.6 350.4 361.5z" />
<glyph unicode="&#xe636;" glyph-name="mpr_back" d="M194.65 140c124.8 324.4 425.1 266.2 425.1 266.2v-177.4l340 266.1-340 266.2v-133.1c-467.6-102.6-425.1-488-425.1-488M741.35 73.4s-7.7-22.2-21.5-22.2h-590.1s-21.8 7.8-21.8 21.5v510.9s8.8 22.2 22.5 22.1c47.6-0.1 263.4-0.2 263.4-0.2h22.3c17.6 17.9 48.3 29.5 63.1 44.6h-393.2c-13.6 0-21.8-22.2-21.8-22.2v-599.5c0-13.8 21.8-21.5 21.8-21.5h676.6c14.3 0 22.4 22.2 22.4 22.2v266.2l-43.7-44.3v-177.6z" />
<glyph unicode="&#xe637;" glyph-name="mrp_location" d="M927.848 415.95h-83.5c-0.5 4.8-1 9.6-1.7 14.4-21.1 152-144.6 271.3-298.7 285.9v83.8c-0.9 17.6-16 31.2-33.6 30.2-16.3-0.9-29.4-13.9-30.2-30.2v-83.9c-159-15.1-285.5-141.4-300.5-300.2h-84c-17.6 0-31.9-14.3-31.9-31.9s14.3-31.9 31.9-31.9h83.9c15.1-158.8 141.6-285.2 300.5-300.3v-83.9c0.9-17.6 16-31.2 33.6-30.2 16.3 0.9 29.4 13.9 30.2 30.2v83.9c153.7 14.6 277.1 133.3 298.6 284.8 0.7 5.1 1.3 10.2 1.8 15.4h83.5c17.6-0.3 32.2 13.7 32.5 31.3s-13.7 32.2-31.3 32.5c-0.4 0-0.8 0-1.1 0.1zM511.948 124.65c-143.3 0-259.5 116.1-259.5 259.3s116.1 259.4 259.5 259.4 259.5-116.1 259.5-259.4-116.2-259.3-259.5-259.3zM511.948 453.65c-38.5 0-69.6-31.2-69.6-69.7s31.2-69.6 69.7-69.6c38.4 0 69.6 31.2 69.6 69.6-0.1 38.5-31.2 69.7-69.7 69.7z" />
<glyph unicode="&#xe638;" glyph-name="mpr_move" d="M130.25 202.4c6.1-108.3 108.7-205.4 227.6-217.3 3-0.3-6.1 0.1-3-0.1v-48.4h48.4l-2.5 47.7c123.6 7.9 223.3 102.4 237.4 222.6 0.5 4.2 6.6-8.5 6.9-4.3h96.7l-15.8-51.2 233.4 84.9-233.4 84.8 15.8-70-102.5 1.9c-8.3 126.2-110.6 227-238.5 235.2l2.5 125.6 66.6-12.6-86 230.2-86-230.2 56.9 12.6v-120.9c-3.7-0.2 4.9-5.3 1.3-5.7-122.7-13-219.5-111.7-227.6-234.3h-63.8v-50.2s56.3-0.3 65.6-0.3zM549.45 252l-146.3-0.9 2.9 144.1c74.5-10 133.4-68.9 143.4-143.2zM354.85 396.2v-145.1h-145.1c10 74.3 70.7 135.1 145.1 145.1zM209.75 202.7h145.1v-145.1c-74.4 10.1-135.1 70.8-145.1 145.1zM403.25 57.6v145.1h145.1c-10.1-74.3-70.7-135-145.1-145.1z" />
<glyph unicode="&#xe900;" glyph-name="pigmentBoard" d="M310.342 74.013c-20.859 38.696-36.854 81.411-48.942 97.479-7.37 9.692-24.729 6.744-46.584 3.685-9.105-2.649-19.568-4.172-30.383-4.172-35.103 0-66.459 16.043-87.135 41.198l-0.157 0.196c-58.966 75.919-41.055 379.594 241.024 525.276 56.759 32.602 124.79 51.831 197.313 51.831 106.675 0 203.632-41.603 275.533-109.468l-0.196 0.183c5.595-4.935 9.105-12.12 9.105-20.126 0-0.142-0.001-0.284-0.004-0.424v0.021c0-14.078-9.914-68.068-22.112-68.068-5.607 0.056-10.668 2.356-14.336 6.043l-0.001 0.001c-66.824 59.522-155.404 95.891-252.477 95.891-42.544 0-83.456-6.986-121.653-19.872l2.68 0.785c-131.31-40.281-290.15-266.121-250.348-374.803 11.756-32.027 47.909-30.442 84.764-28.82 6.386 1.338 13.725 2.106 21.244 2.106 21.519 0 41.57-6.279 58.423-17.105l-0.43 0.26c14.998-14.373 41.424-116.273 58.745-151.433 31.547-63.904 164.478-71.054 312.816 39.655 84.099 74.629 132.194 252.117 132.194 252.117v0c0.884 13.526 47.615 24.139 59.518 24.139 12.787-0.981 22.791-11.597 22.791-24.551 0-0.569-0.019-1.133-0.057-1.692l0.005 0.076c0-0.701 0-1.363 0-2.063v0c-1.768-23.77-51.264-240.877-189.54-335.149-60.921-46.135-137.112-75.106-219.9-78.51l-0.78-0.026c-2.651-0.113-5.761-0.178-8.886-0.178-75.23 0-141.705 37.488-181.762 94.802l-0.475 0.716zM523.872 211.552l384.754 482.084c4.439 5.847 11.393 9.585 19.22 9.585 6.532 0 12.454-2.603 16.79-6.824l-0.006 0.006 0.774-0.738c5.434-5.352 8.801-12.79 8.801-21.014 0-6.88-2.357-13.211-6.306-18.226l0.047 0.063-385.416-482.786-87.233-66.078zM220.16 375.366c3.333 19.483 20.096 34.126 40.279 34.126 22.551 0 40.835-18.281 40.835-40.835s-18.28-40.834-40.833-40.835v0c-22.732 2.021-40.422 20.976-40.422 44.060 0 1.238 0.051 2.465 0.151 3.677l-0.011-0.158zM528.774 542.572c5.327 31.752 32.608 55.649 65.47 55.649 36.637 0 66.337-29.7 66.337-66.337s-29.7-66.337-66.337-66.337c-0.071 0-0.143 0-0.212 0h0.011c-36.844 3.386-65.478 34.139-65.478 71.58 0 1.929 0.076 3.841 0.225 5.732l-0.017-0.249zM332.159 542.572c4.289 25.162 25.931 44.077 51.99 44.077 29.105 0 52.701-23.595 52.701-52.701s-23.595-52.701-52.701-52.701c-0.009 0-0.019 0-0.029 0h0.001c-29.335 2.705-52.13 27.193-52.13 57.005 0 1.533 0.060 3.051 0.178 4.555l-0.013-0.198z" />
<glyph unicode="&#xe901;" glyph-name="download" d="M890.095-38.093h-756.122c-39.588 0-71.68 32.092-71.68 71.68v0 185.378c0 18.851 15.282 34.133 34.133 34.133s34.133-15.282 34.133-34.133v0-185.378c0-1.885 1.528-3.413 3.413-3.413v0h756.122c1.885 0 3.413 1.528 3.413 3.413v0 185.378c0 18.851 15.282 34.133 34.133 34.133s34.133-15.282 34.133-34.133v0-185.378c0-39.588-32.092-71.68-71.68-71.68v0zM510.532 142.029c-18.851 0-34.133 15.282-34.133 34.133v0 595.797c0 18.851 15.282 34.133 34.133 34.133s34.133-15.282 34.133-34.133v0-595.797c0-18.851-15.282-34.133-34.133-34.133v0zM510.532 126.942v0c-9.425 0.002-17.957 3.824-24.132 10.001l-192.888 192.819c-5.928 6.132-9.582 14.496-9.582 23.713 0 18.851 15.282 34.133 34.133 34.133 9.217 0 17.581-3.653 23.722-9.591l-0.010 0.009 168.653-168.687 168.687 168.687c6.179 6.183 14.718 10.008 24.149 10.008 18.855 0 34.14-15.285 34.14-34.14 0-9.423-3.818-17.955-9.991-24.132l-192.853-192.819c-6.152-6.154-14.642-9.97-24.024-10.001h-0.006z" />
<glyph unicode="&#xe902;" glyph-name="blur" d="M960-63.998h-896v895.997h896v-895.997zM118.428-9.569h787.14v787.14h-787.14v-787.14zM617.989 264.873c-3.268 0-6.508 0.15-9.749 0.449-60.962 5.663-95.625 62.368-126.201 112.395-24.766 40.524-48.169 78.798-77.165 80.701-22.983 1.463-72.909-18.58-149.457-170.386-6.779-13.409-23.132-18.799-36.541-12.047-13.409 6.78-18.803 23.134-12.048 36.566 36.84 73.060 71.476 124.569 105.839 157.475 31.816 30.457 64.078 44.806 95.82 42.728 57.126-3.786 89.089-56.062 119.988-106.63 26.252-42.924 51.017-83.449 84.81-86.592 41.465-3.861 96.933 48.216 156.309 146.637 7.77 12.863 24.493 16.994 37.36 9.253 12.862-7.77 17.023-24.493 9.253-37.36-70.215-116.378-135.159-173.184-198.219-173.184z" />
<glyph unicode="&#xe903;" glyph-name="sharpen" d="M859.584 111.391h-674.077l337.040 583.774 337.040-583.774zM279.766 165.814h485.53l-242.775 420.489-242.753-420.489zM960-63.999h-896v895.997h896v-895.997zM118.427-9.57h787.14v787.14h-787.14v-787.14z" />
<glyph unicode="&#xe904;" glyph-name="AI" horiz-adv-x="1265" d="M1037.328 610.126v-578.125h-90.883v578.125zM363.479 217.507l2.58 7.16zM363.479 217.571l2.514 7.16 2.838 7.902-68.533 68.533-102.493-269.099h100.428l65.181 185.475zM363.447 217.603v0zM383.993 431.587l141.389-141.389-53.499-53.499-141.389 141.389 53.499 53.499zM519.766 167.001c-41.553 0-75.241 33.688-75.241 75.241s33.688 75.241 75.241 75.241c41.553 0 75.241-33.688 75.241-75.241v0c-0.055-41.531-33.71-75.186-75.235-75.241h-0.006zM519.766 271.463c-16.137 0-29.22-13.083-29.22-29.22s13.083-29.22 29.22-29.22c16.137 0 29.22 13.083 29.22 29.22v0c-0.017 16.132-13.089 29.2-29.218 29.22h-0.003zM991.951 585.487c-41.553 0-75.241 33.688-75.241 75.241s33.688 75.241 75.241 75.241c41.553 0 75.241-33.688 75.241-75.241v0c-0.055-41.531-33.71-75.186-75.235-75.241h-0.006zM991.951 689.948c-16.137 0-29.22-13.083-29.22-29.22s13.083-29.22 29.22-29.22c16.137 0 29.22 13.083 29.22 29.22v0c0 16.143-13.077 29.233-29.218 29.252h-0.003zM563.209 736.001h-97.268l-136.228-357.402 67.307-67.307 115.102 319.476 218.66-598.735h100.428z" />
</font>
</defs>
</svg>
